<svg width="461" height="847" viewBox="0 0 461 847" fill="none" xmlns="http://www.w3.org/2000/svg">
<path fill-rule="evenodd" clip-rule="evenodd" d="M74 133C34.7878 133 3 164.788 3 204V763C3 802.212 34.7878 834 74 834H387C426.212 834 458 802.212 458 763V204C458 164.788 426.212 133 387 133H74ZM231 218C243.703 218 254 207.703 254 195C254 182.297 243.703 172 231 172C218.297 172 208 182.297 208 195C208 207.703 218.297 218 231 218Z" fill="white"/>
<path d="M333.837 353.339V353.34C342.304 446.256 232.683 503.056 161.673 441.84C117.608 403.852 113.516 337.869 150.797 294.659C200.918 236.583 293.804 251.032 324.942 319.643L324.943 319.644C326.26 322.544 324.975 325.963 322.07 327.283C319.157 328.599 315.739 327.31 314.424 324.41V324.409C299.437 291.391 266.311 270.004 229.907 270.004C148.55 270.004 107.398 366.942 161.446 425.58L165.785 430.286V423.885V421.094C165.785 402.348 173.89 384.839 188.148 372.59L189.929 371.06L188.514 369.187C181.76 360.246 178.068 349.292 178.068 338.02C178.068 302.366 213.391 277.363 246.844 289.115L246.853 289.118C280.341 300.746 292.197 341.39 271.227 369.175L269.813 371.048L271.594 372.578C284.154 383.363 289.676 395.874 292.099 405.838C293.312 410.827 293.746 415.175 293.892 418.341C293.964 419.923 293.965 421.211 293.954 422.142C293.95 422.475 293.947 422.657 293.944 422.827C293.941 422.965 293.939 423.096 293.936 423.293C293.934 423.439 293.934 423.589 293.936 423.721C293.937 423.783 293.939 424.071 294.001 424.366L294.99 429.147L298.291 425.55C316.008 406.24 324.711 380.445 322.336 354.391C322.048 351.213 324.387 348.406 327.565 348.119L327.569 348.118C330.743 347.825 333.549 350.165 333.837 353.339ZM199.099 381.764L197.555 379.797C184.273 390.219 179.531 402.828 177.97 413.837C177.195 419.309 177.205 424.38 177.319 428.543C177.344 429.468 177.373 430.322 177.401 431.124C177.437 432.174 177.471 433.135 177.487 434.049C177.517 435.648 177.486 436.823 177.362 437.65L177.125 439.219L178.446 440.101C209.568 460.878 250.303 460.712 281.284 440.094L282.399 439.352V438.013V421.094C282.399 404.901 275.01 389.84 262.164 379.775L262.161 379.772C257.317 375.989 256.426 368.845 260.488 364.106L260.49 364.104C279.083 342.358 269.385 309.163 243.036 300.009C216.919 290.843 189.617 310.439 189.617 338.02C189.617 347.586 193.039 356.853 199.252 364.121C203.311 368.885 202.405 376.01 197.56 379.794L199.099 381.764Z" fill="#EFA11A" stroke="white" stroke-width="5"/>
<path fill-rule="evenodd" clip-rule="evenodd" d="M134.597 846.283C132.888 846.285 131.223 846.287 129.598 846.288C131.223 846.287 132.889 846.285 134.597 846.283ZM280.439 94.2404V129.068H389.455C428.898 129.068 461 161.171 461 200.613V765.724C461 805.163 428.902 837.264 389.464 837.269C258.232 837.148 180.839 837.233 134.611 837.283H134.597H134.484C121.769 837.297 111.417 837.308 102.952 837.312C66.3297 837.328 65.4162 837.183 61.896 836.624L61.8947 836.623C61.6118 836.578 61.312 836.531 60.9755 836.48H60.9705C59.0321 836.19 57.6829 834.38 57.9712 832.425C58.2656 830.472 60.0868 829.134 62.0236 829.425L62.0322 829.427C62.2684 829.462 62.488 829.496 62.6974 829.528H62.7016C66.5562 830.119 66.9583 830.18 103.092 830.166C111.01 830.163 120.66 830.155 132.454 830.145H132.543C178.193 830.107 255.912 830.043 389.45 830.126H389.455C424.977 830.126 453.864 801.248 453.864 765.724V200.613C453.864 165.09 424.978 136.205 389.455 136.205H71.5446C36.0215 136.205 7.13634 165.09 7.13634 200.613V765.729C7.14394 780.45 12.29 794.846 21.6244 806.296C22.873 807.832 22.6374 810.076 21.1151 811.316C19.5846 812.562 17.3352 812.332 16.0897 810.805C5.71332 798.081 0 782.058 0 765.724V200.613C0 161.171 32.1024 129.068 71.5446 129.068H180.568V7.05933C180.568 3.17475 183.743 0 187.627 0H273.379C277.264 0 280.439 3.17475 280.439 7.05933V43.9612C280.439 45.9399 278.837 47.5359 276.87 47.5359C274.904 47.5359 273.302 45.9399 273.302 43.9612V7.13634H187.704V129.068H273.302V94.2404C273.302 92.2678 274.898 90.6722 276.87 90.6722C278.843 90.6722 280.439 92.2678 280.439 94.2404Z" fill="#EFA11A"/>
<path fill-rule="evenodd" clip-rule="evenodd" d="M230.722 165C247.213 165 260.638 178.425 260.638 194.917C260.638 211.408 247.213 224.833 230.722 224.833C214.235 224.833 200.805 211.407 200.805 194.917C200.805 178.426 214.235 165 230.722 165ZM230.722 172.13C218.147 172.13 207.935 182.349 207.935 194.917C207.935 207.489 218.152 217.708 230.722 217.708C243.295 217.708 253.513 207.49 253.513 194.917C253.513 182.341 243.293 172.13 230.722 172.13Z" fill="#EFA11A"/>
</svg>
