<svg width="560" height="150" viewBox="0 0 560 150" fill="none" xmlns="http://www.w3.org/2000/svg">
<path d="M212.506 106.22V46.3H252.626V57.63H225.996V70.17H249.686V81.5H225.996V106.23H212.506V106.22Z" fill="black"/>
<path d="M258.246 83.82C258.246 79.79 258.866 76.25 260.106 73.23C261.346 70.2 262.976 67.68 264.996 65.66C267.016 63.64 269.336 62.11 271.956 61.08C274.576 60.04 277.276 59.52 280.036 59.52C286.486 59.52 291.596 61.5 295.336 65.44C299.086 69.39 300.956 75.2 300.956 82.86C300.956 83.61 300.926 84.43 300.866 85.32C300.806 86.21 300.746 87.01 300.696 87.7H271.476C271.766 90.35 273.006 92.46 275.196 94.01C277.386 95.57 280.326 96.34 284.016 96.34C286.376 96.34 288.696 96.12 290.976 95.69C293.256 95.26 295.116 94.73 296.556 94.09L298.286 104.55C297.596 104.9 296.676 105.24 295.516 105.59C294.366 105.94 293.076 106.24 291.666 106.5C290.256 106.76 288.736 106.98 287.126 107.15C285.506 107.32 283.896 107.41 282.286 107.41C278.196 107.41 274.636 106.8 271.606 105.59C268.576 104.38 266.076 102.72 264.086 100.62C262.096 98.52 260.626 96.02 259.676 93.14C258.726 90.28 258.246 87.16 258.246 83.82ZM288.516 78.89C288.456 77.8 288.266 76.73 287.956 75.69C287.636 74.65 287.146 73.73 286.486 72.92C285.826 72.11 284.986 71.45 283.976 70.93C282.966 70.41 281.716 70.15 280.216 70.15C278.776 70.15 277.536 70.4 276.496 70.88C275.456 71.37 274.596 72.02 273.906 72.83C273.216 73.64 272.686 74.57 272.306 75.64C271.926 76.71 271.656 77.79 271.486 78.88H288.516V78.89Z" fill="black"/>
<path d="M353.186 83.48C353.186 87.11 352.656 90.4 351.586 93.34C350.516 96.28 348.976 98.79 346.956 100.86C344.936 102.94 342.456 104.53 339.516 105.66C336.576 106.78 333.236 107.35 329.486 107.35C327.926 107.35 326.296 107.28 324.606 107.13C322.906 106.99 321.236 106.8 319.586 106.57C317.946 106.34 316.376 106.07 314.876 105.75C313.376 105.43 312.046 105.1 310.896 104.76V41.21L323.776 39.13V61.78C325.216 61.15 326.716 60.66 328.276 60.31C329.836 59.96 331.506 59.79 333.286 59.79C336.516 59.79 339.366 60.35 341.846 61.48C344.326 62.6 346.396 64.2 348.076 66.28C349.746 68.36 351.016 70.85 351.876 73.76C352.756 76.66 353.186 79.9 353.186 83.48ZM340.046 83.13C340.046 74.83 336.986 70.68 330.876 70.68C329.546 70.68 328.236 70.85 326.946 71.2C325.646 71.55 324.596 71.98 323.786 72.5V95.93C324.416 96.05 325.226 96.15 326.206 96.23C327.186 96.32 328.246 96.36 329.406 96.36C332.926 96.36 335.576 95.15 337.356 92.73C339.146 90.31 340.046 87.11 340.046 83.13Z" fill="black"/>
<path d="M390.536 72.15C389.386 71.86 388.026 71.56 386.476 71.24C384.916 70.92 383.246 70.76 381.456 70.76C380.646 70.76 379.686 70.83 378.556 70.98C377.426 71.13 376.576 71.28 376.006 71.46V106.22H363.126V63.16C365.436 62.35 368.156 61.59 371.296 60.87C374.436 60.15 377.936 59.79 381.796 59.79C382.486 59.79 383.326 59.83 384.306 59.92C385.286 60.01 386.266 60.12 387.246 60.27C388.226 60.41 389.206 60.59 390.186 60.79C391.166 60.99 392.006 61.24 392.696 61.53L390.536 72.15Z" fill="black"/>
<path d="M415.096 59.52C418.896 59.52 422.066 59.95 424.606 60.82C427.146 61.68 429.176 62.93 430.706 64.54C432.236 66.15 433.316 68.12 433.946 70.42C434.576 72.73 434.896 75.29 434.896 78.12V104.92C433.046 105.32 430.486 105.8 427.196 106.35C423.906 106.9 419.936 107.17 415.266 107.17C412.326 107.17 409.656 106.91 407.266 106.39C404.876 105.87 402.816 105.02 401.086 103.84C399.356 102.66 398.026 101.12 397.106 99.21C396.186 97.31 395.726 94.97 395.726 92.21C395.726 89.56 396.256 87.31 397.326 85.47C398.396 83.63 399.816 82.16 401.606 81.06C403.396 79.97 405.436 79.17 407.746 78.68C410.056 78.19 412.446 77.95 414.926 77.95C416.596 77.95 418.086 78.02 419.376 78.17C420.676 78.31 421.726 78.5 422.536 78.73V77.52C422.536 75.33 421.876 73.57 420.546 72.25C419.216 70.92 416.916 70.26 413.626 70.26C411.436 70.26 409.276 70.42 407.146 70.74C405.016 71.06 403.166 71.5 401.616 72.08L399.976 61.7C400.726 61.47 401.666 61.22 402.786 60.97C403.906 60.71 405.136 60.48 406.456 60.28C407.786 60.08 409.176 59.91 410.646 59.76C412.116 59.6 413.596 59.52 415.096 59.52ZM416.136 97.22C417.406 97.22 418.616 97.19 419.766 97.13C420.916 97.07 421.846 96.99 422.536 96.87V87.1C422.016 86.98 421.236 86.87 420.206 86.75C419.166 86.63 418.216 86.58 417.356 86.58C416.146 86.58 415.006 86.65 413.946 86.8C412.876 86.94 411.946 87.22 411.136 87.62C410.326 88.02 409.696 88.57 409.236 89.26C408.776 89.95 408.546 90.82 408.546 91.85C408.546 93.87 409.226 95.27 410.576 96.04C411.906 96.83 413.766 97.22 416.136 97.22Z" fill="black"/>
<path d="M466.286 39.12C468.706 39.12 470.926 39.37 472.946 39.86C474.966 40.35 476.516 40.83 477.616 41.29L475.106 51.58C473.956 51.06 472.696 50.67 471.346 50.41C469.986 50.15 468.736 50.02 467.586 50.02C466.026 50.02 464.716 50.24 463.656 50.67C462.586 51.1 461.756 51.69 461.146 52.44C460.536 53.19 460.106 54.08 459.846 55.12C459.586 56.16 459.456 57.28 459.456 58.49V60.74H475.366V71.46H459.456V106.22H446.576V58.32C446.576 52.44 448.236 47.77 451.546 44.31C454.856 40.85 459.766 39.12 466.286 39.12Z" fill="black"/>
<path d="M498.706 59.52C502.506 59.52 505.676 59.95 508.216 60.82C510.756 61.68 512.786 62.93 514.316 64.54C515.846 66.15 516.926 68.12 517.556 70.42C518.186 72.73 518.506 75.29 518.506 78.12V104.92C516.656 105.32 514.096 105.8 510.806 106.35C507.516 106.9 503.546 107.17 498.876 107.17C495.936 107.17 493.266 106.91 490.876 106.39C488.486 105.87 486.426 105.02 484.696 103.84C482.966 102.66 481.636 101.12 480.716 99.21C479.796 97.31 479.336 94.97 479.336 92.21C479.336 89.56 479.866 87.31 480.936 85.47C482.006 83.63 483.426 82.16 485.216 81.06C487.006 79.97 489.046 79.17 491.356 78.68C493.666 78.19 496.056 77.95 498.536 77.95C500.206 77.95 501.696 78.02 502.986 78.17C504.286 78.31 505.336 78.5 506.146 78.73V77.52C506.146 75.33 505.486 73.57 504.156 72.25C502.826 70.92 500.526 70.26 497.236 70.26C495.046 70.26 492.886 70.42 490.756 70.74C488.626 71.06 486.776 71.5 485.226 72.08L483.586 61.7C484.336 61.47 485.276 61.22 486.396 60.97C487.516 60.71 488.746 60.48 490.066 60.28C491.396 60.08 492.786 59.91 494.256 59.76C495.726 59.6 497.206 59.52 498.706 59.52ZM499.746 97.22C501.016 97.22 502.226 97.19 503.376 97.13C504.526 97.07 505.456 96.99 506.146 96.87V87.1C505.626 86.98 504.846 86.87 503.816 86.75C502.776 86.63 501.826 86.58 500.966 86.58C499.756 86.58 498.616 86.65 497.556 86.8C496.486 86.94 495.556 87.22 494.746 87.62C493.936 88.02 493.306 88.57 492.846 89.26C492.386 89.95 492.156 90.82 492.156 91.85C492.156 93.87 492.836 95.27 494.186 96.04C495.526 96.83 497.376 97.22 499.746 97.22Z" fill="black"/>
<path d="M557.586 72.15C556.436 71.86 555.076 71.56 553.526 71.24C551.966 70.92 550.296 70.76 548.506 70.76C547.696 70.76 546.736 70.83 545.606 70.98C544.476 71.13 543.626 71.28 543.056 71.46V106.22H530.176V63.16C532.486 62.35 535.206 61.59 538.346 60.87C541.486 60.15 544.986 59.79 548.846 59.79C549.536 59.79 550.376 59.83 551.356 59.92C552.336 60.01 553.316 60.12 554.296 60.27C555.276 60.41 556.256 60.59 557.236 60.79C558.216 60.99 559.056 61.24 559.746 61.53L557.586 72.15Z" fill="black"/>
<path d="M69.3557 103.76C66.7157 106.4 64.5557 108.56 64.5557 108.56C64.5557 108.56 66.7157 110.72 69.3557 113.36L100.466 144.47C103.106 147.11 108.316 149.27 112.046 149.27H166.326C170.056 149.27 170.956 147.11 168.316 144.47L98.4857 74.64C96.1457 76.98 96.3257 76.8 93.6857 79.44L69.3557 103.76Z" fill="black"/>
<path d="M64.5657 40.71V108.55L98.4857 74.63L64.5657 40.71Z" fill="black"/>
<path d="M71.3457 0C67.6157 0 64.5657 3.05 64.5657 6.78V40.7C66.8657 43 66.7257 42.86 69.3657 45.5L93.6957 69.83C96.3357 72.47 96.8257 72.96 98.4957 74.63L168.326 4.8C170.966 2.16 170.066 0 166.336 0H71.3457Z" fill="black"/>
<path d="M173.116 102.53C173.116 106.26 170.956 107.16 168.316 104.52L143.226 79.43C140.586 76.79 140.586 72.47 143.226 69.84L168.316 44.75C170.956 42.11 173.116 43.01 173.116 46.74V102.53Z" fill="black"/>
<path d="M1.51565 45.5C-1.12435 42.86 -0.224342 40.7 3.50566 40.7H64.5657C64.5657 45.18 64.5657 43.75 64.5657 47.48V108.54C62.6457 106.62 62.4057 106.38 59.7657 103.74L1.51565 45.5Z" fill="black"/>
</svg>
