<svg width="560" height="150" viewBox="0 0 560 150" fill="none" xmlns="http://www.w3.org/2000/svg">
<path d="M212.53 106.77V46.85H252.65V58.18H226.02V70.72H249.71V82.05H226.02V106.78H212.53V106.77Z" fill="black"/>
<path d="M258.27 84.3699C258.27 80.3399 258.89 76.7999 260.13 73.7799C261.37 70.7499 263 68.2299 265.02 66.2099C267.04 64.1899 269.36 62.6599 271.98 61.6299C274.6 60.5899 277.3 60.0699 280.06 60.0699C286.51 60.0699 291.62 62.0499 295.36 65.9899C299.11 69.9399 300.98 75.7499 300.98 83.4099C300.98 84.1599 300.95 84.9799 300.89 85.8699C300.83 86.7599 300.77 87.5599 300.72 88.2499H271.5C271.79 90.8999 273.03 93.0099 275.22 94.5599C277.41 96.1199 280.35 96.89 284.04 96.89C286.4 96.89 288.72 96.6699 291 96.2399C293.28 95.8099 295.14 95.28 296.58 94.64L298.31 105.1C297.62 105.45 296.7 105.79 295.54 106.14C294.39 106.49 293.1 106.79 291.69 107.05C290.28 107.31 288.76 107.53 287.15 107.7C285.53 107.87 283.92 107.96 282.31 107.96C278.22 107.96 274.66 107.35 271.63 106.14C268.6 104.93 266.1 103.27 264.11 101.17C262.12 99.07 260.65 96.5699 259.7 93.6899C258.75 90.8299 258.27 87.7099 258.27 84.3699ZM288.54 79.4399C288.48 78.3499 288.29 77.2799 287.98 76.2399C287.66 75.1999 287.17 74.2799 286.51 73.4699C285.85 72.6599 285.01 71.9999 284 71.4799C282.99 70.9599 281.74 70.7 280.24 70.7C278.8 70.7 277.56 70.9499 276.52 71.4299C275.48 71.9199 274.62 72.5699 273.93 73.3799C273.24 74.1899 272.71 75.1199 272.33 76.1899C271.95 77.2599 271.68 78.3399 271.51 79.4299H288.54V79.4399Z" fill="black"/>
<path d="M353.21 84.0299C353.21 87.6599 352.68 90.95 351.61 93.89C350.54 96.83 349 99.3399 346.98 101.41C344.96 103.49 342.48 105.08 339.54 106.21C336.6 107.33 333.26 107.9 329.51 107.9C327.95 107.9 326.32 107.83 324.63 107.68C322.93 107.54 321.26 107.35 319.61 107.12C317.97 106.89 316.4 106.62 314.9 106.3C313.4 105.98 312.07 105.65 310.92 105.31V41.7599L323.8 39.6799V62.3299C325.24 61.6999 326.74 61.2099 328.3 60.8599C329.86 60.5099 331.53 60.3399 333.31 60.3399C336.54 60.3399 339.39 60.8999 341.87 62.0299C344.35 63.1499 346.42 64.7499 348.1 66.8299C349.77 68.9099 351.04 71.3999 351.9 74.3099C352.78 77.2099 353.21 80.4499 353.21 84.0299ZM340.07 83.6799C340.07 75.3799 337.01 71.2299 330.9 71.2299C329.57 71.2299 328.26 71.3999 326.97 71.7499C325.67 72.0999 324.62 72.5299 323.81 73.0499V96.4799C324.44 96.5999 325.25 96.6999 326.23 96.7799C327.21 96.8699 328.27 96.9099 329.43 96.9099C332.95 96.9099 335.6 95.6999 337.38 93.2799C339.17 90.8599 340.07 87.6599 340.07 83.6799Z" fill="black"/>
<path d="M390.56 72.7C389.41 72.41 388.05 72.11 386.5 71.79C384.94 71.47 383.27 71.31 381.48 71.31C380.67 71.31 379.71 71.38 378.58 71.53C377.45 71.68 376.6 71.83 376.03 72.01V106.77H363.15V63.71C365.46 62.9 368.18 62.14 371.32 61.42C374.46 60.7 377.96 60.34 381.82 60.34C382.51 60.34 383.35 60.38 384.33 60.47C385.31 60.56 386.29 60.67 387.27 60.82C388.25 60.96 389.23 61.14 390.21 61.34C391.19 61.54 392.03 61.79 392.72 62.08L390.56 72.7Z" fill="black"/>
<path d="M415.12 60.0699C418.92 60.0699 422.09 60.4999 424.63 61.3699C427.17 62.2299 429.2 63.4799 430.73 65.0899C432.26 66.6999 433.34 68.6699 433.97 70.9699C434.6 73.2799 434.92 75.84 434.92 78.67V105.47C433.07 105.87 430.51 106.35 427.22 106.9C423.93 107.45 419.96 107.72 415.29 107.72C412.35 107.72 409.68 107.46 407.29 106.94C404.9 106.42 402.84 105.57 401.11 104.39C399.38 103.21 398.05 101.67 397.13 99.7599C396.21 97.8599 395.75 95.5199 395.75 92.7599C395.75 90.1099 396.28 87.8599 397.35 86.0199C398.42 84.1799 399.84 82.7099 401.63 81.6099C403.42 80.5199 405.46 79.7199 407.77 79.2299C410.08 78.7399 412.47 78.4999 414.95 78.4999C416.62 78.4999 418.11 78.5699 419.4 78.7199C420.7 78.8599 421.75 79.0499 422.56 79.2799V78.0699C422.56 75.8799 421.9 74.1199 420.57 72.7999C419.24 71.4699 416.94 70.8099 413.65 70.8099C411.46 70.8099 409.3 70.9699 407.17 71.2899C405.04 71.6099 403.19 72.0499 401.64 72.6299L400 62.2499C400.75 62.0199 401.69 61.7699 402.81 61.5199C403.93 61.2599 405.16 61.0299 406.48 60.8299C407.81 60.6299 409.2 60.4599 410.67 60.3099C412.14 60.1499 413.62 60.0699 415.12 60.0699ZM416.16 97.7699C417.43 97.7699 418.64 97.7399 419.79 97.6799C420.94 97.6199 421.87 97.54 422.56 97.42V87.6499C422.04 87.5299 421.26 87.4199 420.23 87.2999C419.19 87.1799 418.24 87.1299 417.38 87.1299C416.17 87.1299 415.03 87.1999 413.97 87.3499C412.9 87.4899 411.97 87.77 411.16 88.17C410.35 88.57 409.72 89.1199 409.26 89.8099C408.8 90.4999 408.57 91.3699 408.57 92.3999C408.57 94.4199 409.25 95.8199 410.6 96.5899C411.93 97.3799 413.79 97.7699 416.16 97.7699Z" fill="black"/>
<path d="M466.31 39.67C468.73 39.67 470.95 39.92 472.97 40.41C474.99 40.9 476.54 41.38 477.64 41.84L475.13 52.13C473.98 51.61 472.72 51.22 471.37 50.96C470.01 50.7 468.76 50.57 467.61 50.57C466.05 50.57 464.74 50.79 463.68 51.22C462.61 51.65 461.78 52.24 461.17 52.99C460.56 53.74 460.13 54.63 459.87 55.67C459.61 56.71 459.48 57.83 459.48 59.04V61.29H475.39V72.01H459.48V106.77H446.6V58.87C446.6 52.99 448.26 48.32 451.57 44.86C454.88 41.4 459.79 39.67 466.31 39.67Z" fill="black"/>
<path d="M498.73 60.0699C502.53 60.0699 505.7 60.4999 508.24 61.3699C510.78 62.2299 512.81 63.4799 514.34 65.0899C515.87 66.6999 516.95 68.6699 517.58 70.9699C518.21 73.2799 518.53 75.84 518.53 78.67V105.47C516.68 105.87 514.12 106.35 510.83 106.9C507.54 107.45 503.57 107.72 498.9 107.72C495.96 107.72 493.29 107.46 490.9 106.94C488.51 106.42 486.45 105.57 484.72 104.39C482.99 103.21 481.66 101.67 480.74 99.7599C479.82 97.8599 479.36 95.5199 479.36 92.7599C479.36 90.1099 479.89 87.8599 480.96 86.0199C482.03 84.1799 483.45 82.7099 485.24 81.6099C487.03 80.5199 489.07 79.7199 491.38 79.2299C493.69 78.7399 496.08 78.4999 498.56 78.4999C500.23 78.4999 501.72 78.5699 503.01 78.7199C504.31 78.8599 505.36 79.0499 506.17 79.2799V78.0699C506.17 75.8799 505.51 74.1199 504.18 72.7999C502.85 71.4699 500.55 70.8099 497.26 70.8099C495.07 70.8099 492.91 70.9699 490.78 71.2899C488.65 71.6099 486.8 72.0499 485.25 72.6299L483.61 62.2499C484.36 62.0199 485.3 61.7699 486.42 61.5199C487.54 61.2599 488.77 61.0299 490.09 60.8299C491.42 60.6299 492.81 60.4599 494.28 60.3099C495.75 60.1499 497.23 60.0699 498.73 60.0699ZM499.77 97.7699C501.04 97.7699 502.25 97.7399 503.4 97.6799C504.55 97.6199 505.48 97.54 506.17 97.42V87.6499C505.65 87.5299 504.87 87.4199 503.84 87.2999C502.8 87.1799 501.85 87.1299 500.99 87.1299C499.78 87.1299 498.64 87.1999 497.58 87.3499C496.51 87.4899 495.58 87.77 494.77 88.17C493.96 88.57 493.33 89.1199 492.87 89.8099C492.41 90.4999 492.18 91.3699 492.18 92.3999C492.18 94.4199 492.86 95.8199 494.21 96.5899C495.55 97.3799 497.4 97.7699 499.77 97.7699Z" fill="black"/>
<path d="M557.61 72.7C556.46 72.41 555.1 72.11 553.55 71.79C551.99 71.47 550.32 71.31 548.53 71.31C547.72 71.31 546.76 71.38 545.63 71.53C544.5 71.68 543.65 71.83 543.08 72.01V106.77H530.2V63.71C532.51 62.9 535.23 62.14 538.37 61.42C541.51 60.7 545.01 60.34 548.87 60.34C549.56 60.34 550.4 60.38 551.38 60.47C552.36 60.56 553.34 60.67 554.32 60.82C555.3 60.96 556.28 61.14 557.26 61.34C558.24 61.54 559.08 61.79 559.77 62.08L557.61 72.7Z" fill="black"/>
<path d="M69.3801 104.31C66.7401 106.95 64.5801 109.11 64.5801 109.11C64.5801 109.11 66.7401 111.27 69.3801 113.91L100.49 145.02C103.13 147.66 108.34 149.82 112.07 149.82H166.35C170.08 149.82 170.98 147.66 168.34 145.02L98.5101 75.19C96.1701 77.53 96.3501 77.35 93.7101 79.99L69.3801 104.31Z" fill="black"/>
<path d="M64.5901 41.26V109.1L98.5101 75.18L64.5901 41.26Z" fill="#4D4D4F"/>
<path d="M71.3701 0.549988C67.6401 0.549988 64.5901 3.59999 64.5901 7.32999V41.25C66.8901 43.55 66.7501 43.41 69.3901 46.05L93.7201 70.38C96.3601 73.02 96.8501 73.51 98.5201 75.18L168.35 5.34999C170.99 2.70999 170.09 0.549988 166.36 0.549988H71.3701Z" fill="#848486"/>
<path d="M173.14 103.08C173.14 106.81 170.98 107.71 168.34 105.07L143.25 79.98C140.61 77.34 140.61 73.02 143.25 70.39L168.34 45.2999C170.98 42.6599 173.14 43.56 173.14 47.29V103.08Z" fill="black"/>
<path d="M1.54007 46.05C-1.09993 43.41 -0.199928 41.25 3.53007 41.25H64.5901C64.5901 45.73 64.5901 44.3 64.5901 48.03V109.09C62.6701 107.17 62.4301 106.93 59.7901 104.29L1.54007 46.05Z" fill="#7D7D7F"/>
</svg>
