<?xml version="1.0" standalone="no"?>
<!DOCTYPE svg PUBLIC "-//W3C//DTD SVG 20010904//EN"
 "http://www.w3.org/TR/2001/REC-SVG-20010904/DTD/svg10.dtd">
<svg version="1.0" xmlns="http://www.w3.org/2000/svg"
 width="767.000000pt" height="223.000000pt" viewBox="0 0 767.000000 223.000000"
 preserveAspectRatio="xMidYMid meet">
<metadata>
Created by potrace 1.15, written by Peter Selinger 2001-2017
</metadata>
<g transform="translate(0.000000,223.000000) scale(0.100000,-0.100000)"
fill="#000000" stroke="none">
<path d="M3060 2214 c-76 -33 -125 -105 -136 -198 l-7 -56 -38 0 -39 0 0 -70
0 -70 40 0 40 0 0 -220 0 -220 105 0 105 0 0 220 0 220 60 0 60 0 0 70 0 70
-60 0 -60 0 0 34 c0 19 9 45 21 60 18 22 28 26 75 26 62 0 68 9 62 96 l-3 49
-95 2 c-68 2 -105 -2 -130 -13z"/>
<path d="M1820 2104 c-30 -9 -72 -20 -92 -25 l-38 -10 0 -54 0 -55 -45 0 -45
0 0 -70 0 -70 44 0 44 0 4 -167 c4 -201 11 -221 91 -259 53 -24 145 -32 216
-18 l31 7 0 71 0 72 -51 0 c-80 -1 -89 16 -89 170 l0 124 70 0 70 0 0 70 0 70
-70 0 -70 0 0 80 c0 44 -3 80 -7 79 -5 0 -33 -7 -63 -15z"/>
<path d="M1245 1973 c-138 -19 -230 -117 -208 -223 8 -45 69 -103 129 -125
135 -49 160 -68 134 -100 -27 -32 -90 -29 -226 10 -19 6 -23 0 -39 -59 -10
-37 -16 -68 -13 -71 2 -2 33 -12 68 -21 96 -24 252 -16 317 17 150 78 131 265
-32 324 -111 40 -135 53 -135 74 0 41 87 55 157 26 19 -8 39 -15 43 -15 6 0
40 108 40 129 0 18 -170 43 -235 34z"/>
<path d="M2399 1970 c-107 -13 -197 -79 -242 -179 -16 -35 -21 -66 -21 -128 0
-107 35 -182 107 -230 65 -43 104 -54 219 -60 107 -6 248 18 248 41 0 7 -5 37
-11 67 l-11 55 -61 -13 c-141 -29 -248 -5 -286 65 l-11 22 207 2 208 3 3 48
c13 209 -127 333 -349 307z m90 -131 c31 -11 61 -52 61 -84 0 -13 -17 -15
-110 -15 -60 0 -110 3 -110 8 0 21 45 75 73 87 40 17 46 18 86 4z"/>
<path d="M3549 1970 c-76 -10 -171 -41 -166 -54 2 -6 12 -35 22 -64 13 -43 20
-52 34 -46 96 40 203 46 245 13 44 -35 34 -45 -52 -52 -137 -11 -246 -67 -278
-144 -29 -69 -14 -152 38 -200 72 -67 249 -71 320 -7 16 15 18 14 24 -10 6
-26 7 -26 98 -26 l91 0 -3 192 c-4 272 -21 323 -125 372 -59 27 -158 38 -248
26z m171 -359 c0 -49 -29 -87 -79 -102 -46 -14 -77 -1 -92 39 -19 51 47 99
139 101 31 1 32 -1 32 -38z"/>
<path d="M4433 1969 c-48 -9 -89 -29 -120 -59 -22 -20 -23 -20 -23 -1 0 47 -7
51 -103 51 l-90 0 6 -67 c4 -38 7 -168 7 -290 l0 -223 100 0 100 0 0 175 c0
137 3 182 15 205 34 66 106 80 156 31 l29 -29 0 -191 0 -191 106 0 105 0 -3
218 c-3 211 -4 219 -29 267 -43 85 -143 125 -256 104z"/>
<path d="M5633 1970 c-41 -9 -78 -26 -120 -56 -20 -15 -21 -14 -28 15 l-7 31
-89 0 -89 0 0 -290 0 -290 104 0 105 0 3 191 3 191 33 29 c44 40 93 40 133 0
l29 -29 0 -191 0 -191 106 0 106 0 -4 218 c-3 200 -5 220 -25 258 -30 56 -85
102 -130 109 -75 12 -89 13 -130 5z"/>
<path d="M4910 1670 l0 -290 105 0 105 0 0 290 0 290 -105 0 -105 0 0 -290z"/>
<path d="M6110 1670 l0 -290 100 0 100 0 0 290 0 290 -100 0 -100 0 0 -290z"/>
<path d="M258 1886 c-162 -132 -214 -243 -193 -411 7 -63 20 -74 20 -17 0 87
114 249 238 337 42 30 60 50 68 78 7 20 10 40 6 43 -3 3 -23 8 -44 11 -35 5
-45 0 -95 -41z"/>
<path d="M608 1856 c-161 -71 -327 -200 -414 -322 -99 -139 -98 -236 4 -344
49 -51 65 -51 40 0 -19 37 -19 42 -4 92 43 149 230 327 451 429 64 29 89 47
114 80 17 24 31 46 31 50 0 10 -99 49 -124 49 -11 0 -56 -16 -98 -34z"/>
<path d="M635 1551 c-198 -122 -315 -266 -315 -387 0 -43 4 -54 29 -78 32 -31
142 -67 201 -65 l35 1 -35 10 c-49 14 -80 45 -80 82 0 82 118 220 257 301 65
37 89 58 114 97 18 27 28 53 23 57 -14 12 -88 31 -121 31 -17 0 -61 -20 -108
-49z"/>
<path d="M753 1312 c-51 -34 -100 -79 -134 -126 -37 -51 -41 -117 -7 -140 28
-20 90 -20 156 -1 62 19 74 33 33 41 -67 14 -59 57 18 112 31 22 89 109 79
117 -2 1 -27 7 -55 12 -48 9 -56 8 -90 -15z"/>
<path d="M2740 585 l0 -365 60 0 60 0 0 365 0 365 -60 0 -60 0 0 -365z"/>
<path d="M3290 779 c-14 -6 -37 -22 -52 -36 l-28 -27 0 32 0 32 -55 0 -55 0 0
-280 0 -280 60 0 60 0 0 187 c0 169 2 191 21 230 25 51 61 73 122 73 34 0 49
-6 68 -26 24 -25 24 -28 27 -245 l3 -219 60 0 61 0 -4 228 c-3 207 -5 230 -24
262 -35 60 -76 80 -163 79 -42 0 -87 -5 -101 -10z"/>
<path d="M3850 768 c-55 -29 -81 -64 -87 -119 -9 -93 41 -138 206 -184 53 -15
106 -36 119 -47 32 -31 30 -80 -5 -108 -24 -19 -38 -21 -105 -18 -64 3 -81 7
-102 27 -14 14 -26 31 -26 39 0 12 -10 13 -52 8 -29 -4 -55 -10 -58 -12 -2 -3
7 -26 20 -51 37 -69 79 -87 209 -91 122 -4 174 11 220 63 38 44 49 96 30 149
-21 60 -68 91 -194 126 -60 18 -118 39 -127 48 -10 8 -18 29 -18 48 0 47 29
64 108 64 60 0 66 -2 99 -35 35 -35 72 -44 116 -27 16 7 16 10 -5 52 -35 68
-86 90 -208 90 -80 0 -103 -4 -140 -22z"/>
<path d="M4400 395 l0 -395 60 0 60 0 0 131 0 130 33 -23 c26 -19 47 -24 117
-26 111 -4 151 17 194 100 54 107 47 322 -14 407 -42 57 -86 74 -184 69 -72
-3 -87 -7 -119 -31 l-37 -28 0 30 c0 31 0 31 -55 31 l-55 0 0 -395z m318 299
c36 -25 54 -73 59 -158 11 -165 -31 -249 -121 -249 -58 0 -93 24 -118 80 -16
37 -19 62 -16 141 5 148 40 201 133 202 22 0 51 -7 63 -16z"/>
<path d="M5554 756 l-34 -34 0 29 c0 28 -1 29 -55 29 l-55 0 0 -280 0 -280 60
0 60 0 0 173 c0 192 8 237 51 280 27 26 35 29 74 24 l45 -5 0 49 0 49 -56 0
c-50 0 -59 -3 -90 -34z"/>
<path d="M6380 779 c-14 -6 -37 -22 -52 -36 l-28 -27 0 32 0 32 -55 0 -55 0 0
-280 0 -280 60 0 60 0 0 187 c0 169 2 191 21 230 25 51 61 73 122 73 34 0 49
-6 68 -26 24 -25 24 -28 27 -245 l3 -219 60 0 61 0 -4 228 c-3 207 -5 230 -24
262 -35 60 -76 80 -163 79 -42 0 -87 -5 -101 -10z"/>
<path d="M6970 779 c-94 -38 -144 -186 -120 -356 19 -138 68 -194 175 -201 89
-6 129 4 170 40 l35 30 0 -43 c0 -107 -46 -169 -125 -169 -57 0 -93 17 -112
53 -13 25 -19 28 -45 23 -17 -3 -41 -6 -54 -6 -53 0 -3 -94 69 -129 58 -28
202 -30 262 -2 50 22 91 69 105 119 6 21 11 171 13 340 l2 302 -57 0 c-56 0
-58 -1 -58 -27 0 -24 -1 -25 -17 -11 -40 34 -82 48 -150 47 -37 0 -79 -5 -93
-10z m200 -107 c65 -65 78 -203 27 -302 -18 -35 -33 -49 -69 -64 -45 -18 -46
-18 -84 0 -57 28 -77 76 -78 188 -1 101 20 175 57 201 12 8 41 15 65 15 38 0
50 -6 82 -38z"/>
<path d="M5090 500 l0 -280 60 0 60 0 0 280 0 280 -60 0 -60 0 0 -280z"/>
<path d="M5860 500 l0 -280 60 0 60 0 0 280 0 280 -60 0 -60 0 0 -280z"/>
</g>
</svg>
