<?xml version="1.0" standalone="no"?>
<!DOCTYPE svg PUBLIC "-//W3C//DTD SVG 20010904//EN"
 "http://www.w3.org/TR/2001/REC-SVG-20010904/DTD/svg10.dtd">
<svg version="1.0" xmlns="http://www.w3.org/2000/svg"
 width="1894.000000pt" height="558.000000pt" viewBox="0 0 1894.000000 558.000000"
 preserveAspectRatio="xMidYMid meet">

<g transform="translate(0.000000,558.000000) scale(0.100000,-0.100000)"
fill="#000000" stroke="none">
<path d="M1049 5207 c-76 -37 -247 -150 -301 -198 -20 -19 -47 -43 -60 -54
-13 -11 -48 -49 -78 -84 -30 -35 -60 -69 -65 -75 -102 -112 -215 -359 -215
-470 0 -36 -6 -61 -18 -77 -11 -13 -21 -33 -25 -44 -3 -11 -17 -51 -30 -89
-23 -62 -25 -84 -27 -241 -1 -253 34 -395 121 -490 38 -41 43 -52 41 -88 -3
-49 20 -142 46 -189 23 -43 74 -120 88 -133 5 -5 28 -32 49 -60 96 -121 232
-221 347 -256 37 -12 68 -26 68 -33 0 -15 75 -96 88 -96 5 0 15 -7 22 -15 7
-8 26 -19 44 -24 17 -6 58 -20 91 -31 185 -65 376 -91 527 -69 46 6 121 13
168 15 47 1 106 7 130 13 25 5 60 13 79 16 19 3 42 10 53 16 10 6 29 11 41 13
26 3 110 43 182 86 28 16 57 33 65 37 32 14 120 76 120 84 0 4 -24 -3 -54 -16
-65 -29 -173 -58 -186 -50 -5 3 -11 1 -14 -4 -9 -14 -143 -24 -166 -11 -25 14
-28 86 -4 133 21 41 150 171 162 163 6 -3 12 0 15 7 3 7 23 21 44 32 41 20 38
15 130 203 15 28 24 53 22 55 -4 3 -68 18 -208 49 -40 8 -51 6 -100 -19 -31
-15 -61 -35 -68 -43 -7 -8 -13 -11 -13 -7 0 5 -19 -8 -42 -27 -23 -20 -46 -36
-51 -36 -11 0 -58 -44 -166 -152 l-77 -78 -185 0 c-101 0 -190 4 -196 8 -9 6
0 27 34 77 82 124 182 228 366 378 98 81 299 205 409 253 41 17 56 33 103 104
30 46 55 85 55 86 0 2 16 29 35 61 19 32 35 61 35 64 0 5 -70 26 -252 74 l-97
25 -98 -48 c-106 -53 -119 -60 -246 -139 -84 -52 -275 -191 -332 -243 l-30
-27 -145 8 c-142 8 -311 26 -319 35 -6 6 255 264 267 264 6 0 12 4 14 9 3 8
104 93 163 137 143 106 318 213 486 295 65 33 122 59 126 59 4 0 42 14 85 32
58 24 86 42 106 68 14 19 30 37 34 38 4 2 8 9 8 16 0 6 14 26 30 44 17 18 30
36 30 39 0 3 14 22 30 43 35 44 37 55 13 64 -10 4 -82 32 -160 62 l-142 54
-73 -24 c-105 -36 -156 -55 -176 -65 -9 -6 -82 -42 -162 -82 -178 -87 -155
-74 -345 -198 -96 -63 -163 -81 -325 -88 -135 -5 -220 5 -220 28 0 12 91 109
102 109 4 0 26 18 49 40 23 22 48 40 55 40 6 0 14 6 17 13 5 15 123 97 138 97
6 0 8 4 5 9 -3 5 1 31 10 57 8 27 17 58 19 69 2 11 6 32 10 48 6 24 4 27 -16
28 -23 1 -32 3 -54 9 -12 3 -15 3 -78 14 -43 8 -51 6 -73 -15 -13 -12 -24 -19
-24 -15 0 5 -14 -6 -32 -23 -17 -17 -37 -31 -44 -31 -6 0 -14 -7 -18 -15 -3
-8 -10 -15 -15 -15 -6 0 -36 -25 -68 -56 -72 -69 -113 -99 -113 -84 0 30 86
183 142 252 55 67 171 168 194 168 4 0 15 6 23 14 9 8 48 31 86 51 78 42 105
62 105 80 0 22 -54 13 -121 -18z m-219 -1144 c-52 -54 -101 -105 -109 -113
-18 -17 -159 -206 -177 -236 -11 -18 -17 -16 -117 33 l-105 52 7 33 c13 53
125 248 143 248 5 0 8 6 8 14 0 30 26 37 97 28 69 -10 254 7 305 27 46 19 40
10 -52 -86z m358 -770 c-29 -38 -56 -69 -60 -71 -5 -2 -8 -7 -8 -12 0 -5 -16
-32 -35 -62 -20 -29 -49 -81 -65 -115 -32 -67 -41 -72 -93 -49 -18 7 -52 22
-77 32 -67 28 -160 87 -160 102 0 7 12 43 27 81 l26 68 91 7 c88 7 255 40 346
70 25 7 48 14 53 15 4 1 -16 -29 -45 -66z m552 -573 c0 -5 -7 -34 -17 -63 -18
-61 -9 -59 -130 -25 -40 12 -73 24 -73 28 0 4 28 15 63 23 34 9 80 23 102 31
49 18 55 19 55 6z"/>
<path d="M7315 4929 c-164 -22 -300 -70 -417 -146 -244 -159 -327 -487 -193
-759 78 -158 270 -283 522 -338 37 -9 139 -27 226 -41 204 -33 281 -57 324
-100 66 -66 34 -161 -69 -202 -108 -43 -327 -40 -500 8 -94 26 -230 97 -295
154 l-52 45 -93 -97 c-51 -54 -126 -132 -165 -174 -40 -41 -73 -80 -73 -86 0
-14 86 -87 165 -140 128 -86 297 -152 480 -189 127 -25 496 -27 606 -2 191 43
319 107 427 214 118 117 172 256 172 439 0 342 -222 539 -695 616 -345 56
-431 82 -461 141 -19 37 -13 91 13 121 49 55 191 81 352 66 166 -16 300 -63
403 -142 l48 -37 38 43 c21 23 81 89 132 147 51 58 107 119 123 137 l29 31
-58 46 c-137 108 -310 188 -490 226 -115 24 -387 35 -499 19z"/>
<path d="M5459 4920 c-145 -23 -283 -93 -373 -190 l-56 -61 0 105 0 106 -285
0 -285 0 0 -990 0 -990 290 0 290 0 0 579 c0 318 4 600 9 627 26 135 97 241
195 291 39 20 70 27 132 31 148 8 237 -43 285 -164 l24 -59 3 -652 3 -653 290
0 290 0 -3 748 c-4 837 0 789 -79 950 -71 146 -196 250 -364 302 -79 25 -269
35 -366 20z"/>
<path d="M9680 4915 c-137 -31 -254 -92 -351 -184 l-69 -66 0 107 0 108 -285
0 -285 0 0 -1315 0 -1315 290 0 290 0 0 433 0 432 25 -32 c38 -48 141 -121
230 -164 222 -107 499 -90 722 42 65 39 184 153 230 220 152 221 222 524 194
840 -40 459 -244 763 -586 875 -101 33 -301 43 -405 19z m155 -520 c115 -56
197 -174 231 -335 20 -95 14 -308 -11 -390 -61 -197 -183 -307 -351 -318 -245
-16 -410 150 -444 446 -26 234 47 459 182 558 73 54 145 75 249 71 70 -2 96
-8 144 -32z"/>
<path d="M13043 4919 c-177 -17 -344 -116 -433 -256 l-30 -48 0 133 0 132
-285 0 -285 0 0 -990 0 -990 289 0 290 0 4 533 c3 476 5 539 22 597 66 238
230 371 458 370 34 0 91 -5 127 -10 35 -5 66 -8 67 -6 7 7 93 498 88 506 -13
20 -207 39 -312 29z"/>
<path d="M15625 4921 c-170 -28 -324 -108 -400 -209 l-35 -45 0 107 0 106
-285 0 -285 0 0 -990 0 -990 290 0 290 0 0 593 c0 493 3 602 15 650 32 123 99
213 192 258 58 28 182 37 248 19 61 -17 127 -77 156 -142 l24 -53 3 -662 3
-663 295 0 295 0 -3 738 c-4 724 -4 738 -26 815 -65 233 -200 376 -422 448
-72 24 -266 34 -355 20z"/>
<path d="M17430 4916 c-360 -76 -610 -357 -675 -760 -19 -116 -19 -306 0 -422
51 -318 215 -558 466 -685 244 -122 562 -116 756 15 21 14 67 54 102 89 l63
62 -4 -111 c-4 -98 -8 -118 -36 -177 -53 -114 -157 -196 -288 -228 -79 -19
-256 -14 -349 10 -96 25 -218 83 -302 145 -35 25 -66 46 -70 45 -5 0 -74 -90
-156 -200 l-147 -200 22 -20 c51 -43 187 -130 249 -157 193 -87 369 -122 607
-122 287 0 496 53 680 173 182 119 292 273 353 497 l23 85 4 963 3 962 -286 0
-285 0 0 -108 0 -108 -77 76 c-137 134 -253 181 -458 186 -84 2 -153 -2 -195
-10z m445 -501 c186 -52 294 -245 282 -505 -10 -224 -104 -372 -274 -432 -83
-29 -225 -23 -303 14 -160 74 -244 231 -244 453 1 216 81 373 228 445 102 50
193 58 311 25z"/>
<path d="M3450 3890 l0 -990 290 0 290 0 0 990 0 990 -290 0 -290 0 0 -990z"/>
<path d="M11000 3890 l0 -990 290 0 290 0 0 990 0 990 -290 0 -290 0 0 -990z"/>
<path d="M13610 3890 l0 -990 290 0 290 0 0 990 0 990 -290 0 -290 0 0 -990z"/>
<path d="M14580 1554 c-107 -28 -182 -95 -209 -185 -7 -24 -11 -213 -11 -563
l0 -526 135 0 135 0 0 355 0 355 110 0 110 0 0 110 0 109 -107 3 -108 3 2 44
c3 69 27 86 118 85 l74 -1 16 73 c28 128 29 127 -35 141 -76 15 -165 14 -230
-3z"/>
<path d="M12700 1463 c0 -5 0 -231 0 -503 0 -563 0 -560 75 -629 57 -52 128
-73 248 -72 96 0 202 19 202 36 0 6 -11 54 -25 107 l-24 97 -71 -6 c-84 -7
-111 9 -125 72 -11 44 -14 384 -4 409 5 13 25 16 115 16 l109 0 0 110 0 110
-115 0 -115 0 0 130 0 130 -135 0 c-74 0 -135 -3 -135 -7z"/>
<path d="M7370 1229 c-120 -36 -180 -182 -121 -297 53 -103 216 -136 311 -62
l25 19 -26 27 c-26 26 -27 26 -54 8 -39 -25 -117 -24 -153 3 -59 44 -66 136
-14 194 36 40 101 50 156 24 35 -17 38 -17 56 0 29 26 25 39 -19 63 -47 27
-113 35 -161 21z"/>
<path d="M7785 1236 c-5 -3 -22 -7 -37 -10 -39 -9 -88 -54 -109 -101 -24 -53
-24 -138 0 -192 55 -120 253 -139 334 -32 98 131 23 317 -134 334 -24 2 -48 3
-54 1z m115 -104 c73 -73 39 -210 -57 -228 -76 -14 -145 41 -147 118 -2 92 40
137 127 138 40 0 53 -5 77 -28z"/>
<path d="M8494 1230 c-58 -13 -101 -48 -128 -102 -73 -145 21 -299 181 -298
48 0 124 28 138 50 4 6 -3 22 -15 35 l-22 23 -45 -20 c-56 -25 -101 -18 -145
21 -59 53 -47 170 22 206 38 19 93 19 132 -1 29 -15 32 -15 55 9 l25 24 -29
21 c-29 20 -96 43 -123 41 -8 -1 -29 -4 -46 -9z"/>
<path d="M10907 1225 c-80 -28 -126 -100 -127 -198 0 -92 40 -155 117 -183 77
-27 164 -13 216 34 25 24 27 31 27 109 l0 83 -85 0 -85 0 0 -34 c0 -34 1 -35
48 -38 47 -3 47 -3 47 -38 0 -32 -4 -36 -41 -49 -34 -12 -46 -12 -84 0 -57 19
-84 55 -84 117 0 63 27 107 77 127 43 17 86 13 125 -12 22 -14 26 -13 49 9
l24 23 -25 22 c-49 41 -130 53 -199 28z"/>
<path d="M11998 1225 c-118 -30 -209 -97 -244 -180 -23 -53 -22 -166 1 -223
28 -70 93 -118 204 -152 53 -16 141 -39 196 -51 55 -12 106 -26 113 -31 17
-14 15 -63 -3 -82 -22 -22 -74 -29 -170 -24 -75 4 -92 9 -173 50 l-89 46 -79
-80 -79 -79 40 -34 c105 -89 235 -130 420 -130 152 0 227 20 310 83 73 55 107
127 107 225 0 91 -22 147 -79 198 -35 32 -133 79 -165 79 -27 0 -246 54 -270
66 -34 18 -37 53 -7 80 16 14 40 20 99 22 89 5 166 -14 224 -53 20 -14 38 -25
40 -25 2 0 36 37 75 81 l72 81 -21 23 c-29 30 -121 79 -190 100 -77 23 -260
29 -332 10z"/>
<path d="M13655 1229 c-213 -31 -375 -240 -375 -481 1 -295 191 -490 480 -492
154 -1 279 46 368 137 l44 44 -92 72 -93 71 -39 -36 c-53 -48 -96 -64 -165
-64 -103 1 -161 33 -194 105 -37 80 -58 75 296 75 l315 0 0 81 c0 234 -125
419 -319 474 -66 19 -156 24 -226 14z m159 -233 c42 -18 85 -73 93 -120 l6
-36 -172 0 -171 0 6 28 c14 57 48 102 99 130 28 16 99 15 139 -2z"/>
<path d="M15263 1229 c-123 -12 -226 -55 -292 -123 l-35 -36 25 -26 c13 -14
50 -49 82 -76 l57 -50 35 26 c77 59 195 74 256 33 38 -26 59 -60 59 -98 l0
-26 -127 -7 c-152 -9 -210 -20 -281 -54 -92 -45 -144 -129 -145 -236 -1 -114
55 -215 143 -261 50 -26 167 -47 219 -39 55 8 136 46 174 82 l27 26 0 -42 0
-42 136 0 135 0 -3 349 -3 348 -35 69 c-23 45 -49 79 -77 100 -84 64 -215 95
-350 83z m192 -568 c10 -17 -7 -91 -29 -123 -43 -64 -113 -93 -183 -77 -94 21
-113 136 -30 181 36 19 232 35 242 19z"/>
<path d="M8750 1035 l0 -195 40 0 40 0 0 65 0 65 29 0 c24 0 41 -13 87 -65 56
-63 59 -65 107 -65 l49 0 -60 67 -60 67 32 15 c65 33 82 125 34 186 -34 43
-76 55 -193 55 l-105 0 0 -195z m204 115 c39 -14 53 -53 32 -85 -15 -23 -23
-25 -86 -25 l-70 0 0 60 0 60 49 0 c27 0 61 -4 75 -10z"/>
<path d="M9140 1035 l0 -195 146 0 145 0 -3 38 -3 37 -107 3 -108 3 0 39 0 40
105 0 105 0 0 35 0 35 -105 0 -105 0 0 40 0 40 110 0 110 0 0 40 0 40 -145 0
-145 0 0 -195z"/>
<path d="M9550 1048 c-45 -101 -85 -189 -87 -195 -4 -9 7 -13 36 -13 37 0 43
3 58 35 l17 35 98 0 98 0 17 -35 c15 -32 21 -35 59 -35 l42 0 -86 195 -87 195
-41 0 -42 0 -82 -182z m181 -45 c8 -22 7 -23 -56 -23 -36 0 -65 4 -65 9 0 4
14 39 32 77 l31 69 25 -55 c13 -30 28 -65 33 -77z"/>
<path d="M9850 1195 l0 -35 60 0 60 0 0 -160 0 -160 40 0 40 0 0 160 0 160 60
0 60 0 0 35 0 35 -160 0 -160 0 0 -35z"/>
<path d="M10220 1035 l0 -195 40 0 40 0 0 195 0 195 -40 0 -40 0 0 -195z"/>
<path d="M10390 1035 l0 -195 40 0 39 0 3 121 3 121 94 -121 c73 -95 99 -121
117 -121 l24 0 0 195 0 195 -35 0 -34 0 -3 -117 -3 -118 -93 118 c-81 102 -96
117 -122 117 l-30 0 0 -195z"/>
<path d="M16349 1221 c-37 -12 -70 -30 -111 -63 l-38 -30 0 41 0 41 -135 0
-135 0 0 -465 0 -465 135 0 135 0 0 278 c0 160 4 293 10 314 29 105 144 159
227 108 57 -34 58 -38 63 -380 l5 -315 138 -3 138 -3 -3 363 c-3 354 -4 364
-26 413 -28 60 -82 119 -137 148 -32 16 -61 21 -140 24 -55 1 -112 -1 -126 -6z"/>
<path d="M17836 1210 c-27 -11 -67 -36 -88 -57 l-38 -37 0 47 0 47 -135 0
-135 0 0 -465 0 -465 135 0 135 0 0 273 c0 149 5 290 10 311 17 76 73 127 147
133 55 4 86 -9 117 -50 20 -27 21 -43 26 -345 l5 -317 138 -3 138 -3 -3 364
-3 364 -35 69 c-38 74 -95 123 -168 144 -61 17 -191 12 -246 -10z"/>
<path d="M16970 745 l0 -465 135 0 135 0 0 465 0 465 -135 0 -135 0 0 -465z"/>
<path d="M18480 745 l0 -465 135 0 135 0 0 465 0 465 -135 0 -135 0 0 -465z"/>
<path d="M8070 1025 l0 -35 105 0 105 0 0 35 0 35 -105 0 -105 0 0 -35z"/>
<path d="M9625 660 c4 -11 35 -98 70 -193 l63 -172 34 -3 35 -3 31 83 c18 46
37 96 43 113 10 29 11 27 49 -72 48 -128 45 -123 83 -123 l32 0 68 188 c37
103 67 191 67 195 0 5 -19 7 -42 5 l-43 -3 -40 -127 c-22 -71 -42 -128 -45
-128 -3 0 -25 58 -49 130 -41 123 -45 130 -70 130 -25 0 -29 -7 -72 -137 l-46
-138 -43 138 -43 137 -44 0 c-40 0 -44 -2 -38 -20z"/>
<path d="M10260 485 l0 -195 40 0 40 0 0 195 0 195 -40 0 -40 0 0 -195z"/>
<path d="M10410 645 l0 -35 60 0 60 0 0 -160 0 -160 40 0 40 0 0 160 0 160 60
0 60 0 0 35 0 35 -160 0 -160 0 0 -35z"/>
<path d="M10790 485 l0 -195 40 0 40 0 0 75 0 75 90 0 90 0 0 -75 0 -75 40 0
40 0 0 195 0 195 -40 0 -40 0 0 -80 0 -80 -90 0 -90 0 0 80 0 80 -40 0 -40 0
0 -195z"/>
</g>
</svg>
