<?xml version="1.0" standalone="no"?>
<!DOCTYPE svg PUBLIC "-//W3C//DTD SVG 20010904//EN"
 "http://www.w3.org/TR/2001/REC-SVG-20010904/DTD/svg10.dtd">
<svg version="1.0" xmlns="http://www.w3.org/2000/svg"
 width="358.648371pt" height="82.603864pt" viewBox="0 0 358.648371 82.603864"
 preserveAspectRatio="xMidYMid meet">
<metadata>
Created by potrace 1.12, written by Peter Selinger 2001-2015
</metadata>
<g transform="translate(-0.207473,101.603864) scale(0.100000,-0.100000)"
fill="#000000" stroke="none">
<path d="M287 1010 c-179 -45 -300 -212 -283 -389 8 -95 53 -180 140 -267 61
-61 211 -164 239 -164 5 0 -19 21 -53 46 -101 74 -186 169 -228 253 -33 67
-37 83 -37 151 0 65 4 85 33 142 36 74 95 132 170 169 40 20 63 24 147 24 91
0 105 -3 148 -27 43 -24 51 -26 63 -13 26 25 114 45 205 45 104 0 195 -25 260
-71 l44 -32 -35 37 c-19 21 -64 52 -100 69 -58 29 -73 32 -155 32 -85 0 -97
-3 -164 -36 l-73 -36 -66 34 c-55 28 -81 35 -142 38 -41 2 -92 0 -113 -5z"/>
<path d="M2527 752 c-32 -33 -34 -42 -9 -42 10 0 33 16 52 35 l34 35 -25 0
c-15 0 -37 -12 -52 -28z"/>
<path d="M2920 765 c-17 -21 -5 -45 24 -45 27 0 42 26 25 46 -15 18 -33 18
-49 -1z"/>
<path d="M230 751 c0 -6 11 -75 25 -155 14 -80 25 -148 25 -151 0 -3 13 -5 30
-5 29 0 33 7 110 160 l80 160 -30 0 c-28 0 -33 -6 -87 -115 -32 -63 -60 -115
-64 -115 -3 0 -11 44 -18 98 -16 127 -18 132 -47 132 -13 0 -24 -4 -24 -9z"/>
<path d="M554 745 c-8 -19 3 -35 26 -35 19 0 30 17 23 38 -6 17 -42 15 -49 -3z"/>
<path d="M826 748 c-18 -67 -20 -70 -62 -73 -59 -4 -101 -30 -124 -75 -28 -55
-26 -114 5 -145 29 -30 54 -32 88 -5 30 24 38 25 31 5 -5 -11 1 -15 23 -15
l29 0 32 153 c18 84 32 156 32 160 0 12 -50 8 -54 -5z m-32 -147 c-3 -14 -16
-46 -27 -71 -17 -35 -28 -46 -50 -48 -44 -5 -52 36 -22 112 10 22 61 45 86 39
15 -4 17 -11 13 -32z"/>
<path d="M1335 683 c-9 -43 -25 -115 -35 -160 l-18 -83 29 0 c30 0 30 0 47 85
l8 40 54 3 c52 3 70 13 70 40 0 8 -18 12 -55 12 -60 0 -59 -1 -44 53 l10 37
58 0 c57 0 71 8 71 41 0 5 -40 9 -89 9 l-89 0 -17 -77z"/>
<path d="M996 670 c-105 -32 -146 -197 -59 -231 28 -10 83 4 83 22 0 5 5 9 10
9 6 0 10 -7 10 -15 0 -18 49 -21 54 -2 10 37 39 208 35 211 -10 10 -107 14
-133 6z m63 -39 c11 -7 11 -17 -3 -63 -18 -62 -44 -91 -78 -86 -51 7 -26 126
31 147 34 12 34 12 50 2z"/>
<path d="M1622 670 c-43 -10 -70 -35 -93 -85 -23 -49 -24 -77 -4 -114 20 -39
58 -47 101 -22 27 16 34 17 34 6 0 -9 10 -15 24 -15 19 0 26 7 30 28 3 15 13
64 22 109 10 46 16 85 13 87 -10 9 -97 13 -127 6z m68 -48 c0 -5 -7 -31 -15
-59 -17 -58 -44 -86 -77 -81 -20 3 -23 8 -22 50 0 61 31 98 81 98 18 0 33 -4
33 -8z"/>
<path d="M1913 670 c-12 -5 -26 -17 -32 -27 -10 -16 -10 -16 -11 5 0 17 -6 22
-24 22 -22 0 -26 -6 -36 -57 -7 -32 -18 -84 -25 -115 l-13 -58 28 0 c27 0 29
4 43 65 22 96 43 122 93 116 13 -1 26 37 18 51 -6 10 -12 9 -41 -2z"/>
<path d="M2086 655 c-34 -23 -36 -23 -36 -5 0 14 -7 20 -24 20 -22 0 -26 -6
-36 -57 -7 -32 -18 -84 -25 -115 l-13 -58 28 0 c27 0 29 4 44 67 17 78 43 117
78 121 36 4 38 -12 18 -106 l-18 -82 29 0 c26 0 29 3 40 61 15 76 45 123 82
127 25 3 27 0 27 -30 0 -30 -13 -96 -26 -140 -4 -14 1 -18 24 -18 28 0 29 3
45 75 23 105 22 131 -7 150 -28 19 -64 12 -95 -16 -20 -19 -20 -19 -45 6 -31
31 -44 31 -90 0z"/>
<path d="M2489 671 c-48 -15 -69 -32 -89 -71 -28 -55 -26 -114 5 -145 30 -30
54 -31 89 -4 21 17 26 18 26 5 0 -11 9 -16 28 -16 26 0 27 2 48 108 12 59 19
110 15 113 -11 11 -95 18 -122 10z m56 -92 c-18 -68 -40 -99 -70 -99 -33 0
-46 27 -35 74 12 54 36 76 81 76 l37 0 -13 -51z"/>
<path d="M2745 670 c-49 -15 -86 -61 -92 -114 -3 -24 -3 -57 1 -71 13 -52 122
-70 146 -25 15 27 14 28 -34 23 -38 -5 -46 -2 -56 17 -16 30 -5 82 24 109 18
17 33 22 63 19 33 -3 38 0 41 20 2 13 -2 22 -10 22 -7 0 -22 2 -33 4 -11 3
-34 1 -50 -4z"/>
<path d="M3100 670 c-117 -28 -150 -234 -37 -234 21 0 45 8 57 19 18 16 20 16
20 2 0 -11 8 -17 24 -17 19 0 26 7 30 28 3 15 13 64 22 109 10 46 16 85 13 87
-10 9 -98 13 -129 6z m70 -48 c0 -5 -7 -31 -15 -59 -17 -58 -44 -86 -77 -81
-20 3 -23 8 -22 50 0 61 31 98 81 98 18 0 33 -4 33 -8z"/>
<path d="M3323 665 c-58 -25 -58 -87 0 -124 40 -26 46 -41 22 -61 -12 -10 -24
-11 -50 -3 -37 12 -45 9 -45 -18 0 -35 113 -35 145 1 27 30 16 81 -22 105 -18
11 -35 27 -38 35 -8 20 24 42 49 34 36 -11 40 -10 44 12 2 17 -4 23 -29 28
-40 8 -38 8 -76 -9z"/>
<path d="M516 578 c-24 -122 -22 -132 30 -136 35 -3 42 0 47 17 4 16 0 21 -14
21 -23 0 -24 20 -4 110 19 84 19 80 -13 80 -27 0 -28 -2 -46 -92z"/>
<path d="M2891 633 c-27 -103 -34 -163 -21 -178 17 -20 76 -20 84 1 9 23 8 24
-14 24 -24 0 -24 12 -5 100 19 87 19 90 -10 90 -20 0 -26 -7 -34 -37z"/>
<path d="M3488 653 c-26 -31 -29 -42 -17 -65 16 -30 28 -38 60 -38 53 0 77 62
39 100 -25 25 -62 26 -82 3z m72 -13 c25 -25 25 -42 0 -65 -46 -41 -108 26
-65 69 22 21 41 20 65 -4z"/>
<path d="M3500 611 c0 -17 5 -31 10 -31 6 0 10 5 10 11 0 8 4 8 14 -1 13 -10
15 -7 13 17 -2 21 -8 29 -25 31 -19 3 -22 -1 -22 -27z"/>
</g>
</svg>
