<svg width="2930" height="2930" viewBox="0 0 2930 2930" fill="none" xmlns="http://www.w3.org/2000/svg">
<path d="M2930 0H0V2930H2930V0Z" fill="white"/>
<path d="M322.3 249.05H249.05V322.3H322.3V249.05Z" fill="black"/>
<path d="M395.55 249.05H322.3V322.3H395.55V249.05Z" fill="black"/>
<path d="M468.8 249.05H395.55V322.3H468.8V249.05Z" fill="black"/>
<path d="M542.05 249.05H468.8V322.3H542.05V249.05Z" fill="black"/>
<path d="M615.3 249.05H542.05V322.3H615.3V249.05Z" fill="black"/>
<path d="M688.55 249.05H615.3V322.3H688.55V249.05Z" fill="black"/>
<path d="M761.8 249.05H688.55V322.3H761.8V249.05Z" fill="black"/>
<path d="M981.55 249.05H908.3V322.3H981.55V249.05Z" fill="black"/>
<path d="M1347.8 249.05H1274.55V322.3H1347.8V249.05Z" fill="black"/>
<path d="M1494.3 249.05H1421.05V322.3H1494.3V249.05Z" fill="black"/>
<path d="M1567.55 249.05H1494.3V322.3H1567.55V249.05Z" fill="black"/>
<path d="M1640.8 249.05H1567.55V322.3H1640.8V249.05Z" fill="black"/>
<path d="M1714.05 249.05H1640.8V322.3H1714.05V249.05Z" fill="black"/>
<path d="M1787.3 249.05H1714.05V322.3H1787.3V249.05Z" fill="black"/>
<path d="M1860.55 249.05H1787.3V322.3H1860.55V249.05Z" fill="black"/>
<path d="M1933.8 249.05H1860.55V322.3H1933.8V249.05Z" fill="black"/>
<path d="M2007.05 249.05H1933.8V322.3H2007.05V249.05Z" fill="black"/>
<path d="M2226.8 249.05H2153.55V322.3H2226.8V249.05Z" fill="black"/>
<path d="M2300.05 249.05H2226.8V322.3H2300.05V249.05Z" fill="black"/>
<path d="M2373.3 249.05H2300.05V322.3H2373.3V249.05Z" fill="black"/>
<path d="M2446.55 249.05H2373.3V322.3H2446.55V249.05Z" fill="black"/>
<path d="M2519.8 249.05H2446.55V322.3H2519.8V249.05Z" fill="black"/>
<path d="M2593.05 249.05H2519.8V322.3H2593.05V249.05Z" fill="black"/>
<path d="M2666.3 249.05H2593.05V322.3H2666.3V249.05Z" fill="black"/>
<path d="M322.3 322.3H249.05V395.55H322.3V322.3Z" fill="black"/>
<path d="M761.8 322.3H688.55V395.55H761.8V322.3Z" fill="black"/>
<path d="M908.3 322.3H835.05V395.55H908.3V322.3Z" fill="black"/>
<path d="M981.55 322.3H908.3V395.55H981.55V322.3Z" fill="black"/>
<path d="M1128.05 322.3H1054.8V395.55H1128.05V322.3Z" fill="black"/>
<path d="M1201.3 322.3H1128.05V395.55H1201.3V322.3Z" fill="black"/>
<path d="M1347.8 322.3H1274.55V395.55H1347.8V322.3Z" fill="black"/>
<path d="M1421.05 322.3H1347.8V395.55H1421.05V322.3Z" fill="black"/>
<path d="M1494.3 322.3H1421.05V395.55H1494.3V322.3Z" fill="black"/>
<path d="M1640.8 322.3H1567.55V395.55H1640.8V322.3Z" fill="black"/>
<path d="M2226.8 322.3H2153.55V395.55H2226.8V322.3Z" fill="black"/>
<path d="M2666.3 322.3H2593.05V395.55H2666.3V322.3Z" fill="black"/>
<path d="M322.3 395.55H249.05V468.8H322.3V395.55Z" fill="black"/>
<path d="M468.8 395.55H395.55V468.8H468.8V395.55Z" fill="black"/>
<path d="M542.05 395.55H468.8V468.8H542.05V395.55Z" fill="black"/>
<path d="M615.3 395.55H542.05V468.8H615.3V395.55Z" fill="black"/>
<path d="M761.8 395.55H688.55V468.8H761.8V395.55Z" fill="black"/>
<path d="M981.55 395.55H908.3V468.8H981.55V395.55Z" fill="black"/>
<path d="M1054.8 395.55H981.55V468.8H1054.8V395.55Z" fill="black"/>
<path d="M1128.05 395.55H1054.8V468.8H1128.05V395.55Z" fill="black"/>
<path d="M1787.3 395.55H1714.05V468.8H1787.3V395.55Z" fill="black"/>
<path d="M1860.55 395.55H1787.3V468.8H1860.55V395.55Z" fill="black"/>
<path d="M2080.3 395.55H2007.05V468.8H2080.3V395.55Z" fill="black"/>
<path d="M2226.8 395.55H2153.55V468.8H2226.8V395.55Z" fill="black"/>
<path d="M2373.3 395.55H2300.05V468.8H2373.3V395.55Z" fill="black"/>
<path d="M2446.55 395.55H2373.3V468.8H2446.55V395.55Z" fill="black"/>
<path d="M2519.8 395.55H2446.55V468.8H2519.8V395.55Z" fill="black"/>
<path d="M2666.3 395.55H2593.05V468.8H2666.3V395.55Z" fill="black"/>
<path d="M322.3 468.8H249.05V542.05H322.3V468.8Z" fill="black"/>
<path d="M468.8 468.8H395.55V542.05H468.8V468.8Z" fill="black"/>
<path d="M542.05 468.8H468.8V542.05H542.05V468.8Z" fill="black"/>
<path d="M615.3 468.8H542.05V542.05H615.3V468.8Z" fill="black"/>
<path d="M761.8 468.8H688.55V542.05H761.8V468.8Z" fill="black"/>
<path d="M908.3 468.8H835.05V542.05H908.3V468.8Z" fill="black"/>
<path d="M981.55 468.8H908.3V542.05H981.55V468.8Z" fill="black"/>
<path d="M1128.05 468.8H1054.8V542.05H1128.05V468.8Z" fill="black"/>
<path d="M1274.55 468.8H1201.3V542.05H1274.55V468.8Z" fill="black"/>
<path d="M1421.05 468.8H1347.8V542.05H1421.05V468.8Z" fill="black"/>
<path d="M1567.55 468.8H1494.3V542.05H1567.55V468.8Z" fill="black"/>
<path d="M1787.3 468.8H1714.05V542.05H1787.3V468.8Z" fill="black"/>
<path d="M2080.3 468.8H2007.05V542.05H2080.3V468.8Z" fill="black"/>
<path d="M2226.8 468.8H2153.55V542.05H2226.8V468.8Z" fill="black"/>
<path d="M2373.3 468.8H2300.05V542.05H2373.3V468.8Z" fill="black"/>
<path d="M2446.55 468.8H2373.3V542.05H2446.55V468.8Z" fill="black"/>
<path d="M2519.8 468.8H2446.55V542.05H2519.8V468.8Z" fill="black"/>
<path d="M2666.3 468.8H2593.05V542.05H2666.3V468.8Z" fill="black"/>
<path d="M322.3 542.05H249.05V615.3H322.3V542.05Z" fill="black"/>
<path d="M468.8 542.05H395.55V615.3H468.8V542.05Z" fill="black"/>
<path d="M542.05 542.05H468.8V615.3H542.05V542.05Z" fill="black"/>
<path d="M615.3 542.05H542.05V615.3H615.3V542.05Z" fill="black"/>
<path d="M761.8 542.05H688.55V615.3H761.8V542.05Z" fill="black"/>
<path d="M1054.8 542.05H981.55V615.3H1054.8V542.05Z" fill="black"/>
<path d="M1201.3 542.05H1128.05V615.3H1201.3V542.05Z" fill="black"/>
<path d="M1274.55 542.05H1201.3V615.3H1274.55V542.05Z" fill="black"/>
<path d="M1347.8 542.05H1274.55V615.3H1347.8V542.05Z" fill="black"/>
<path d="M1494.3 542.05H1421.05V615.3H1494.3V542.05Z" fill="black"/>
<path d="M1567.55 542.05H1494.3V615.3H1567.55V542.05Z" fill="black"/>
<path d="M1640.8 542.05H1567.55V615.3H1640.8V542.05Z" fill="black"/>
<path d="M1714.05 542.05H1640.8V615.3H1714.05V542.05Z" fill="black"/>
<path d="M1787.3 542.05H1714.05V615.3H1787.3V542.05Z" fill="black"/>
<path d="M2007.05 542.05H1933.8V615.3H2007.05V542.05Z" fill="black"/>
<path d="M2226.8 542.05H2153.55V615.3H2226.8V542.05Z" fill="black"/>
<path d="M2373.3 542.05H2300.05V615.3H2373.3V542.05Z" fill="black"/>
<path d="M2446.55 542.05H2373.3V615.3H2446.55V542.05Z" fill="black"/>
<path d="M2519.8 542.05H2446.55V615.3H2519.8V542.05Z" fill="black"/>
<path d="M2666.3 542.05H2593.05V615.3H2666.3V542.05Z" fill="black"/>
<path d="M322.3 615.3H249.05V688.55H322.3V615.3Z" fill="black"/>
<path d="M761.8 615.3H688.55V688.55H761.8V615.3Z" fill="black"/>
<path d="M908.3 615.3H835.05V688.55H908.3V615.3Z" fill="black"/>
<path d="M1054.8 615.3H981.55V688.55H1054.8V615.3Z" fill="black"/>
<path d="M1274.55 615.3H1201.3V688.55H1274.55V615.3Z" fill="black"/>
<path d="M1347.8 615.3H1274.55V688.55H1347.8V615.3Z" fill="black"/>
<path d="M1421.05 615.3H1347.8V688.55H1421.05V615.3Z" fill="black"/>
<path d="M1494.3 615.3H1421.05V688.55H1494.3V615.3Z" fill="black"/>
<path d="M1567.55 615.3H1494.3V688.55H1567.55V615.3Z" fill="black"/>
<path d="M1787.3 615.3H1714.05V688.55H1787.3V615.3Z" fill="black"/>
<path d="M1860.55 615.3H1787.3V688.55H1860.55V615.3Z" fill="black"/>
<path d="M1933.8 615.3H1860.55V688.55H1933.8V615.3Z" fill="black"/>
<path d="M2080.3 615.3H2007.05V688.55H2080.3V615.3Z" fill="black"/>
<path d="M2226.8 615.3H2153.55V688.55H2226.8V615.3Z" fill="black"/>
<path d="M2666.3 615.3H2593.05V688.55H2666.3V615.3Z" fill="black"/>
<path d="M322.3 688.55H249.05V761.8H322.3V688.55Z" fill="black"/>
<path d="M395.55 688.55H322.3V761.8H395.55V688.55Z" fill="black"/>
<path d="M468.8 688.55H395.55V761.8H468.8V688.55Z" fill="black"/>
<path d="M542.05 688.55H468.8V761.8H542.05V688.55Z" fill="black"/>
<path d="M615.3 688.55H542.05V761.8H615.3V688.55Z" fill="black"/>
<path d="M688.55 688.55H615.3V761.8H688.55V688.55Z" fill="black"/>
<path d="M761.8 688.55H688.55V761.8H761.8V688.55Z" fill="black"/>
<path d="M908.3 688.55H835.05V761.8H908.3V688.55Z" fill="black"/>
<path d="M1054.8 688.55H981.55V761.8H1054.8V688.55Z" fill="black"/>
<path d="M1201.3 688.55H1128.05V761.8H1201.3V688.55Z" fill="black"/>
<path d="M1347.8 688.55H1274.55V761.8H1347.8V688.55Z" fill="black"/>
<path d="M1494.3 688.55H1421.05V761.8H1494.3V688.55Z" fill="black"/>
<path d="M1640.8 688.55H1567.55V761.8H1640.8V688.55Z" fill="black"/>
<path d="M1787.3 688.55H1714.05V761.8H1787.3V688.55Z" fill="black"/>
<path d="M1933.8 688.55H1860.55V761.8H1933.8V688.55Z" fill="black"/>
<path d="M2080.3 688.55H2007.05V761.8H2080.3V688.55Z" fill="black"/>
<path d="M2226.8 688.55H2153.55V761.8H2226.8V688.55Z" fill="black"/>
<path d="M2300.05 688.55H2226.8V761.8H2300.05V688.55Z" fill="black"/>
<path d="M2373.3 688.55H2300.05V761.8H2373.3V688.55Z" fill="black"/>
<path d="M2446.55 688.55H2373.3V761.8H2446.55V688.55Z" fill="black"/>
<path d="M2519.8 688.55H2446.55V761.8H2519.8V688.55Z" fill="black"/>
<path d="M2593.05 688.55H2519.8V761.8H2593.05V688.55Z" fill="black"/>
<path d="M2666.3 688.55H2593.05V761.8H2666.3V688.55Z" fill="black"/>
<path d="M1201.3 761.8H1128.05V835.05H1201.3V761.8Z" fill="black"/>
<path d="M1347.8 761.8H1274.55V835.05H1347.8V761.8Z" fill="black"/>
<path d="M1421.05 761.8H1347.8V835.05H1421.05V761.8Z" fill="black"/>
<path d="M1494.3 761.8H1421.05V835.05H1494.3V761.8Z" fill="black"/>
<path d="M1714.05 761.8H1640.8V835.05H1714.05V761.8Z" fill="black"/>
<path d="M1860.55 761.8H1787.3V835.05H1860.55V761.8Z" fill="black"/>
<path d="M1933.8 761.8H1860.55V835.05H1933.8V761.8Z" fill="black"/>
<path d="M2007.05 761.8H1933.8V835.05H2007.05V761.8Z" fill="black"/>
<path d="M322.3 835.05H249.05V908.3H322.3V835.05Z" fill="black"/>
<path d="M395.55 835.05H322.3V908.3H395.55V835.05Z" fill="black"/>
<path d="M468.8 835.05H395.55V908.3H468.8V835.05Z" fill="black"/>
<path d="M542.05 835.05H468.8V908.3H542.05V835.05Z" fill="black"/>
<path d="M615.3 835.05H542.05V908.3H615.3V835.05Z" fill="black"/>
<path d="M761.8 835.05H688.55V908.3H761.8V835.05Z" fill="black"/>
<path d="M835.05 835.05H761.8V908.3H835.05V835.05Z" fill="black"/>
<path d="M908.3 835.05H835.05V908.3H908.3V835.05Z" fill="black"/>
<path d="M981.55 835.05H908.3V908.3H981.55V835.05Z" fill="black"/>
<path d="M1054.8 835.05H981.55V908.3H1054.8V835.05Z" fill="black"/>
<path d="M1201.3 835.05H1128.05V908.3H1201.3V835.05Z" fill="black"/>
<path d="M1274.55 835.05H1201.3V908.3H1274.55V835.05Z" fill="black"/>
<path d="M1347.8 835.05H1274.55V908.3H1347.8V835.05Z" fill="black"/>
<path d="M1421.05 835.05H1347.8V908.3H1421.05V835.05Z" fill="black"/>
<path d="M1567.55 835.05H1494.3V908.3H1567.55V835.05Z" fill="black"/>
<path d="M1933.8 835.05H1860.55V908.3H1933.8V835.05Z" fill="black"/>
<path d="M2080.3 835.05H2007.05V908.3H2080.3V835.05Z" fill="black"/>
<path d="M2153.55 835.05H2080.3V908.3H2153.55V835.05Z" fill="black"/>
<path d="M2300.05 835.05H2226.8V908.3H2300.05V835.05Z" fill="black"/>
<path d="M2446.55 835.05H2373.3V908.3H2446.55V835.05Z" fill="black"/>
<path d="M2593.05 835.05H2519.8V908.3H2593.05V835.05Z" fill="black"/>
<path d="M395.55 908.3H322.3V981.55H395.55V908.3Z" fill="black"/>
<path d="M468.8 908.3H395.55V981.55H468.8V908.3Z" fill="black"/>
<path d="M542.05 908.3H468.8V981.55H542.05V908.3Z" fill="black"/>
<path d="M908.3 908.3H835.05V981.55H908.3V908.3Z" fill="black"/>
<path d="M981.55 908.3H908.3V981.55H981.55V908.3Z" fill="black"/>
<path d="M1347.8 908.3H1274.55V981.55H1347.8V908.3Z" fill="black"/>
<path d="M1494.3 908.3H1421.05V981.55H1494.3V908.3Z" fill="black"/>
<path d="M1567.55 908.3H1494.3V981.55H1567.55V908.3Z" fill="black"/>
<path d="M1640.8 908.3H1567.55V981.55H1640.8V908.3Z" fill="black"/>
<path d="M1714.05 908.3H1640.8V981.55H1714.05V908.3Z" fill="black"/>
<path d="M1787.3 908.3H1714.05V981.55H1787.3V908.3Z" fill="black"/>
<path d="M1860.55 908.3H1787.3V981.55H1860.55V908.3Z" fill="black"/>
<path d="M1933.8 908.3H1860.55V981.55H1933.8V908.3Z" fill="black"/>
<path d="M2007.05 908.3H1933.8V981.55H2007.05V908.3Z" fill="black"/>
<path d="M2153.55 908.3H2080.3V981.55H2153.55V908.3Z" fill="black"/>
<path d="M2226.8 908.3H2153.55V981.55H2226.8V908.3Z" fill="black"/>
<path d="M2519.8 908.3H2446.55V981.55H2519.8V908.3Z" fill="black"/>
<path d="M2593.05 908.3H2519.8V981.55H2593.05V908.3Z" fill="black"/>
<path d="M2666.3 908.3H2593.05V981.55H2666.3V908.3Z" fill="black"/>
<path d="M395.55 981.55H322.3V1054.8H395.55V981.55Z" fill="black"/>
<path d="M542.05 981.55H468.8V1054.8H542.05V981.55Z" fill="black"/>
<path d="M688.55 981.55H615.3V1054.8H688.55V981.55Z" fill="black"/>
<path d="M761.8 981.55H688.55V1054.8H761.8V981.55Z" fill="black"/>
<path d="M908.3 981.55H835.05V1054.8H908.3V981.55Z" fill="black"/>
<path d="M981.55 981.55H908.3V1054.8H981.55V981.55Z" fill="black"/>
<path d="M1128.05 981.55H1054.8V1054.8H1128.05V981.55Z" fill="black"/>
<path d="M1201.3 981.55H1128.05V1054.8H1201.3V981.55Z" fill="black"/>
<path d="M1274.55 981.55H1201.3V1054.8H1274.55V981.55Z" fill="black"/>
<path d="M1421.05 981.55H1347.8V1054.8H1421.05V981.55Z" fill="black"/>
<path d="M1567.55 981.55H1494.3V1054.8H1567.55V981.55Z" fill="black"/>
<path d="M1860.55 981.55H1787.3V1054.8H1860.55V981.55Z" fill="black"/>
<path d="M2300.05 981.55H2226.8V1054.8H2300.05V981.55Z" fill="black"/>
<path d="M2446.55 981.55H2373.3V1054.8H2446.55V981.55Z" fill="black"/>
<path d="M2593.05 981.55H2519.8V1054.8H2593.05V981.55Z" fill="black"/>
<path d="M395.55 1054.8H322.3V1128.05H395.55V1054.8Z" fill="black"/>
<path d="M468.8 1054.8H395.55V1128.05H468.8V1054.8Z" fill="black"/>
<path d="M542.05 1054.8H468.8V1128.05H542.05V1054.8Z" fill="black"/>
<path d="M615.3 1054.8H542.05V1128.05H615.3V1054.8Z" fill="black"/>
<path d="M835.05 1054.8H761.8V1128.05H835.05V1054.8Z" fill="black"/>
<path d="M981.55 1054.8H908.3V1128.05H981.55V1054.8Z" fill="black"/>
<path d="M1054.8 1054.8H981.55V1128.05H1054.8V1054.8Z" fill="black"/>
<path d="M1128.05 1054.8H1054.8V1128.05H1128.05V1054.8Z" fill="black"/>
<path d="M1640.8 1054.8H1567.55V1128.05H1640.8V1054.8Z" fill="black"/>
<path d="M1714.05 1054.8H1640.8V1128.05H1714.05V1054.8Z" fill="black"/>
<path d="M1787.3 1054.8H1714.05V1128.05H1787.3V1054.8Z" fill="black"/>
<path d="M1860.55 1054.8H1787.3V1128.05H1860.55V1054.8Z" fill="black"/>
<path d="M2080.3 1054.8H2007.05V1128.05H2080.3V1054.8Z" fill="black"/>
<path d="M2226.8 1054.8H2153.55V1128.05H2226.8V1054.8Z" fill="black"/>
<path d="M2519.8 1054.8H2446.55V1128.05H2519.8V1054.8Z" fill="black"/>
<path d="M322.3 1128.05H249.05V1201.3H322.3V1128.05Z" fill="black"/>
<path d="M615.3 1128.05H542.05V1201.3H615.3V1128.05Z" fill="black"/>
<path d="M688.55 1128.05H615.3V1201.3H688.55V1128.05Z" fill="black"/>
<path d="M761.8 1128.05H688.55V1201.3H761.8V1128.05Z" fill="black"/>
<path d="M981.55 1128.05H908.3V1201.3H981.55V1128.05Z" fill="black"/>
<path d="M1128.05 1128.05H1054.8V1201.3H1128.05V1128.05Z" fill="black"/>
<path d="M1274.55 1128.05H1201.3V1201.3H1274.55V1128.05Z" fill="black"/>
<path d="M1347.8 1128.05H1274.55V1201.3H1347.8V1128.05Z" fill="black"/>
<path d="M1421.05 1128.05H1347.8V1201.3H1421.05V1128.05Z" fill="black"/>
<path d="M1494.3 1128.05H1421.05V1201.3H1494.3V1128.05Z" fill="black"/>
<path d="M1567.55 1128.05H1494.3V1201.3H1567.55V1128.05Z" fill="black"/>
<path d="M1714.05 1128.05H1640.8V1201.3H1714.05V1128.05Z" fill="black"/>
<path d="M1933.8 1128.05H1860.55V1201.3H1933.8V1128.05Z" fill="black"/>
<path d="M2080.3 1128.05H2007.05V1201.3H2080.3V1128.05Z" fill="black"/>
<path d="M2153.55 1128.05H2080.3V1201.3H2153.55V1128.05Z" fill="black"/>
<path d="M2373.3 1128.05H2300.05V1201.3H2373.3V1128.05Z" fill="black"/>
<path d="M2446.55 1128.05H2373.3V1201.3H2446.55V1128.05Z" fill="black"/>
<path d="M395.55 1201.3H322.3V1274.55H395.55V1201.3Z" fill="black"/>
<path d="M468.8 1201.3H395.55V1274.55H468.8V1201.3Z" fill="black"/>
<path d="M542.05 1201.3H468.8V1274.55H542.05V1201.3Z" fill="black"/>
<path d="M688.55 1201.3H615.3V1274.55H688.55V1201.3Z" fill="black"/>
<path d="M835.05 1201.3H761.8V1274.55H835.05V1201.3Z" fill="black"/>
<path d="M908.3 1201.3H835.05V1274.55H908.3V1201.3Z" fill="black"/>
<path d="M981.55 1201.3H908.3V1274.55H981.55V1201.3Z" fill="black"/>
<path d="M1054.8 1201.3H981.55V1274.55H1054.8V1201.3Z" fill="black"/>
<path d="M1201.3 1201.3H1128.05V1274.55H1201.3V1201.3Z" fill="black"/>
<path d="M1494.3 1201.3H1421.05V1274.55H1494.3V1201.3Z" fill="black"/>
<path d="M1714.05 1201.3H1640.8V1274.55H1714.05V1201.3Z" fill="black"/>
<path d="M1787.3 1201.3H1714.05V1274.55H1787.3V1201.3Z" fill="black"/>
<path d="M1860.55 1201.3H1787.3V1274.55H1860.55V1201.3Z" fill="black"/>
<path d="M1933.8 1201.3H1860.55V1274.55H1933.8V1201.3Z" fill="black"/>
<path d="M2007.05 1201.3H1933.8V1274.55H2007.05V1201.3Z" fill="black"/>
<path d="M2226.8 1201.3H2153.55V1274.55H2226.8V1201.3Z" fill="black"/>
<path d="M2593.05 1201.3H2519.8V1274.55H2593.05V1201.3Z" fill="black"/>
<path d="M2666.3 1201.3H2593.05V1274.55H2666.3V1201.3Z" fill="black"/>
<path d="M468.8 1274.55H395.55V1347.8H468.8V1274.55Z" fill="black"/>
<path d="M542.05 1274.55H468.8V1347.8H542.05V1274.55Z" fill="black"/>
<path d="M615.3 1274.55H542.05V1347.8H615.3V1274.55Z" fill="black"/>
<path d="M688.55 1274.55H615.3V1347.8H688.55V1274.55Z" fill="black"/>
<path d="M761.8 1274.55H688.55V1347.8H761.8V1274.55Z" fill="black"/>
<path d="M835.05 1274.55H761.8V1347.8H835.05V1274.55Z" fill="black"/>
<path d="M1054.8 1274.55H981.55V1347.8H1054.8V1274.55Z" fill="black"/>
<path d="M1347.8 1274.55H1274.55V1347.8H1347.8V1274.55Z" fill="black"/>
<path d="M1421.05 1274.55H1347.8V1347.8H1421.05V1274.55Z" fill="black"/>
<path d="M1494.3 1274.55H1421.05V1347.8H1494.3V1274.55Z" fill="black"/>
<path d="M1567.55 1274.55H1494.3V1347.8H1567.55V1274.55Z" fill="black"/>
<path d="M1640.8 1274.55H1567.55V1347.8H1640.8V1274.55Z" fill="black"/>
<path d="M1787.3 1274.55H1714.05V1347.8H1787.3V1274.55Z" fill="black"/>
<path d="M1933.8 1274.55H1860.55V1347.8H1933.8V1274.55Z" fill="black"/>
<path d="M2080.3 1274.55H2007.05V1347.8H2080.3V1274.55Z" fill="black"/>
<path d="M2300.05 1274.55H2226.8V1347.8H2300.05V1274.55Z" fill="black"/>
<path d="M2373.3 1274.55H2300.05V1347.8H2373.3V1274.55Z" fill="black"/>
<path d="M2593.05 1274.55H2519.8V1347.8H2593.05V1274.55Z" fill="black"/>
<path d="M395.55 1347.8H322.3V1421.05H395.55V1347.8Z" fill="black"/>
<path d="M542.05 1347.8H468.8V1421.05H542.05V1347.8Z" fill="black"/>
<path d="M835.05 1347.8H761.8V1421.05H835.05V1347.8Z" fill="black"/>
<path d="M908.3 1347.8H835.05V1421.05H908.3V1347.8Z" fill="black"/>
<path d="M981.55 1347.8H908.3V1421.05H981.55V1347.8Z" fill="black"/>
<path d="M1054.8 1347.8H981.55V1421.05H1054.8V1347.8Z" fill="black"/>
<path d="M1201.3 1347.8H1128.05V1421.05H1201.3V1347.8Z" fill="black"/>
<path d="M1347.8 1347.8H1274.55V1421.05H1347.8V1347.8Z" fill="black"/>
<path d="M1421.05 1347.8H1347.8V1421.05H1421.05V1347.8Z" fill="black"/>
<path d="M1787.3 1347.8H1714.05V1421.05H1787.3V1347.8Z" fill="black"/>
<path d="M1860.55 1347.8H1787.3V1421.05H1860.55V1347.8Z" fill="black"/>
<path d="M1933.8 1347.8H1860.55V1421.05H1933.8V1347.8Z" fill="black"/>
<path d="M2007.05 1347.8H1933.8V1421.05H2007.05V1347.8Z" fill="black"/>
<path d="M2080.3 1347.8H2007.05V1421.05H2080.3V1347.8Z" fill="black"/>
<path d="M2153.55 1347.8H2080.3V1421.05H2153.55V1347.8Z" fill="black"/>
<path d="M2373.3 1347.8H2300.05V1421.05H2373.3V1347.8Z" fill="black"/>
<path d="M2519.8 1347.8H2446.55V1421.05H2519.8V1347.8Z" fill="black"/>
<path d="M761.8 1421.05H688.55V1494.3H761.8V1421.05Z" fill="black"/>
<path d="M1201.3 1421.05H1128.05V1494.3H1201.3V1421.05Z" fill="black"/>
<path d="M1274.55 1421.05H1201.3V1494.3H1274.55V1421.05Z" fill="black"/>
<path d="M1347.8 1421.05H1274.55V1494.3H1347.8V1421.05Z" fill="black"/>
<path d="M1567.55 1421.05H1494.3V1494.3H1567.55V1421.05Z" fill="black"/>
<path d="M1640.8 1421.05H1567.55V1494.3H1640.8V1421.05Z" fill="black"/>
<path d="M1787.3 1421.05H1714.05V1494.3H1787.3V1421.05Z" fill="black"/>
<path d="M1933.8 1421.05H1860.55V1494.3H1933.8V1421.05Z" fill="black"/>
<path d="M2153.55 1421.05H2080.3V1494.3H2153.55V1421.05Z" fill="black"/>
<path d="M2300.05 1421.05H2226.8V1494.3H2300.05V1421.05Z" fill="black"/>
<path d="M2373.3 1421.05H2300.05V1494.3H2373.3V1421.05Z" fill="black"/>
<path d="M2593.05 1421.05H2519.8V1494.3H2593.05V1421.05Z" fill="black"/>
<path d="M322.3 1494.3H249.05V1567.55H322.3V1494.3Z" fill="black"/>
<path d="M615.3 1494.3H542.05V1567.55H615.3V1494.3Z" fill="black"/>
<path d="M835.05 1494.3H761.8V1567.55H835.05V1494.3Z" fill="black"/>
<path d="M908.3 1494.3H835.05V1567.55H908.3V1494.3Z" fill="black"/>
<path d="M981.55 1494.3H908.3V1567.55H981.55V1494.3Z" fill="black"/>
<path d="M1494.3 1494.3H1421.05V1567.55H1494.3V1494.3Z" fill="black"/>
<path d="M1567.55 1494.3H1494.3V1567.55H1567.55V1494.3Z" fill="black"/>
<path d="M1640.8 1494.3H1567.55V1567.55H1640.8V1494.3Z" fill="black"/>
<path d="M1714.05 1494.3H1640.8V1567.55H1714.05V1494.3Z" fill="black"/>
<path d="M1787.3 1494.3H1714.05V1567.55H1787.3V1494.3Z" fill="black"/>
<path d="M1860.55 1494.3H1787.3V1567.55H1860.55V1494.3Z" fill="black"/>
<path d="M2007.05 1494.3H1933.8V1567.55H2007.05V1494.3Z" fill="black"/>
<path d="M2226.8 1494.3H2153.55V1567.55H2226.8V1494.3Z" fill="black"/>
<path d="M2446.55 1494.3H2373.3V1567.55H2446.55V1494.3Z" fill="black"/>
<path d="M2593.05 1494.3H2519.8V1567.55H2593.05V1494.3Z" fill="black"/>
<path d="M2666.3 1494.3H2593.05V1567.55H2666.3V1494.3Z" fill="black"/>
<path d="M468.8 1567.55H395.55V1640.8H468.8V1567.55Z" fill="black"/>
<path d="M542.05 1567.55H468.8V1640.8H542.05V1567.55Z" fill="black"/>
<path d="M688.55 1567.55H615.3V1640.8H688.55V1567.55Z" fill="black"/>
<path d="M761.8 1567.55H688.55V1640.8H761.8V1567.55Z" fill="black"/>
<path d="M1128.05 1567.55H1054.8V1640.8H1128.05V1567.55Z" fill="black"/>
<path d="M1201.3 1567.55H1128.05V1640.8H1201.3V1567.55Z" fill="black"/>
<path d="M1347.8 1567.55H1274.55V1640.8H1347.8V1567.55Z" fill="black"/>
<path d="M1421.05 1567.55H1347.8V1640.8H1421.05V1567.55Z" fill="black"/>
<path d="M1567.55 1567.55H1494.3V1640.8H1567.55V1567.55Z" fill="black"/>
<path d="M1860.55 1567.55H1787.3V1640.8H1860.55V1567.55Z" fill="black"/>
<path d="M2080.3 1567.55H2007.05V1640.8H2080.3V1567.55Z" fill="black"/>
<path d="M2153.55 1567.55H2080.3V1640.8H2153.55V1567.55Z" fill="black"/>
<path d="M2226.8 1567.55H2153.55V1640.8H2226.8V1567.55Z" fill="black"/>
<path d="M2446.55 1567.55H2373.3V1640.8H2446.55V1567.55Z" fill="black"/>
<path d="M2593.05 1567.55H2519.8V1640.8H2593.05V1567.55Z" fill="black"/>
<path d="M468.8 1640.8H395.55V1714.05H468.8V1640.8Z" fill="black"/>
<path d="M542.05 1640.8H468.8V1714.05H542.05V1640.8Z" fill="black"/>
<path d="M835.05 1640.8H761.8V1714.05H835.05V1640.8Z" fill="black"/>
<path d="M981.55 1640.8H908.3V1714.05H981.55V1640.8Z" fill="black"/>
<path d="M1128.05 1640.8H1054.8V1714.05H1128.05V1640.8Z" fill="black"/>
<path d="M1421.05 1640.8H1347.8V1714.05H1421.05V1640.8Z" fill="black"/>
<path d="M1494.3 1640.8H1421.05V1714.05H1494.3V1640.8Z" fill="black"/>
<path d="M1640.8 1640.8H1567.55V1714.05H1640.8V1640.8Z" fill="black"/>
<path d="M1714.05 1640.8H1640.8V1714.05H1714.05V1640.8Z" fill="black"/>
<path d="M1787.3 1640.8H1714.05V1714.05H1787.3V1640.8Z" fill="black"/>
<path d="M1860.55 1640.8H1787.3V1714.05H1860.55V1640.8Z" fill="black"/>
<path d="M1933.8 1640.8H1860.55V1714.05H1933.8V1640.8Z" fill="black"/>
<path d="M2007.05 1640.8H1933.8V1714.05H2007.05V1640.8Z" fill="black"/>
<path d="M2080.3 1640.8H2007.05V1714.05H2080.3V1640.8Z" fill="black"/>
<path d="M2519.8 1640.8H2446.55V1714.05H2519.8V1640.8Z" fill="black"/>
<path d="M395.55 1714.05H322.3V1787.3H395.55V1714.05Z" fill="black"/>
<path d="M761.8 1714.05H688.55V1787.3H761.8V1714.05Z" fill="black"/>
<path d="M908.3 1714.05H835.05V1787.3H908.3V1714.05Z" fill="black"/>
<path d="M981.55 1714.05H908.3V1787.3H981.55V1714.05Z" fill="black"/>
<path d="M1054.8 1714.05H981.55V1787.3H1054.8V1714.05Z" fill="black"/>
<path d="M1128.05 1714.05H1054.8V1787.3H1128.05V1714.05Z" fill="black"/>
<path d="M1201.3 1714.05H1128.05V1787.3H1201.3V1714.05Z" fill="black"/>
<path d="M1274.55 1714.05H1201.3V1787.3H1274.55V1714.05Z" fill="black"/>
<path d="M1347.8 1714.05H1274.55V1787.3H1347.8V1714.05Z" fill="black"/>
<path d="M1421.05 1714.05H1347.8V1787.3H1421.05V1714.05Z" fill="black"/>
<path d="M1567.55 1714.05H1494.3V1787.3H1567.55V1714.05Z" fill="black"/>
<path d="M2080.3 1714.05H2007.05V1787.3H2080.3V1714.05Z" fill="black"/>
<path d="M2300.05 1714.05H2226.8V1787.3H2300.05V1714.05Z" fill="black"/>
<path d="M2373.3 1714.05H2300.05V1787.3H2373.3V1714.05Z" fill="black"/>
<path d="M2593.05 1714.05H2519.8V1787.3H2593.05V1714.05Z" fill="black"/>
<path d="M322.3 1787.3H249.05V1860.55H322.3V1787.3Z" fill="black"/>
<path d="M395.55 1787.3H322.3V1860.55H395.55V1787.3Z" fill="black"/>
<path d="M542.05 1787.3H468.8V1860.55H542.05V1787.3Z" fill="black"/>
<path d="M615.3 1787.3H542.05V1860.55H615.3V1787.3Z" fill="black"/>
<path d="M688.55 1787.3H615.3V1860.55H688.55V1787.3Z" fill="black"/>
<path d="M835.05 1787.3H761.8V1860.55H835.05V1787.3Z" fill="black"/>
<path d="M908.3 1787.3H835.05V1860.55H908.3V1787.3Z" fill="black"/>
<path d="M981.55 1787.3H908.3V1860.55H981.55V1787.3Z" fill="black"/>
<path d="M1054.8 1787.3H981.55V1860.55H1054.8V1787.3Z" fill="black"/>
<path d="M1201.3 1787.3H1128.05V1860.55H1201.3V1787.3Z" fill="black"/>
<path d="M1494.3 1787.3H1421.05V1860.55H1494.3V1787.3Z" fill="black"/>
<path d="M1567.55 1787.3H1494.3V1860.55H1567.55V1787.3Z" fill="black"/>
<path d="M1640.8 1787.3H1567.55V1860.55H1640.8V1787.3Z" fill="black"/>
<path d="M1714.05 1787.3H1640.8V1860.55H1714.05V1787.3Z" fill="black"/>
<path d="M1787.3 1787.3H1714.05V1860.55H1787.3V1787.3Z" fill="black"/>
<path d="M2007.05 1787.3H1933.8V1860.55H2007.05V1787.3Z" fill="black"/>
<path d="M2153.55 1787.3H2080.3V1860.55H2153.55V1787.3Z" fill="black"/>
<path d="M2226.8 1787.3H2153.55V1860.55H2226.8V1787.3Z" fill="black"/>
<path d="M2446.55 1787.3H2373.3V1860.55H2446.55V1787.3Z" fill="black"/>
<path d="M2593.05 1787.3H2519.8V1860.55H2593.05V1787.3Z" fill="black"/>
<path d="M2666.3 1787.3H2593.05V1860.55H2666.3V1787.3Z" fill="black"/>
<path d="M322.3 1860.55H249.05V1933.8H322.3V1860.55Z" fill="black"/>
<path d="M542.05 1860.55H468.8V1933.8H542.05V1860.55Z" fill="black"/>
<path d="M615.3 1860.55H542.05V1933.8H615.3V1860.55Z" fill="black"/>
<path d="M761.8 1860.55H688.55V1933.8H761.8V1860.55Z" fill="black"/>
<path d="M908.3 1860.55H835.05V1933.8H908.3V1860.55Z" fill="black"/>
<path d="M1054.8 1860.55H981.55V1933.8H1054.8V1860.55Z" fill="black"/>
<path d="M1347.8 1860.55H1274.55V1933.8H1347.8V1860.55Z" fill="black"/>
<path d="M1421.05 1860.55H1347.8V1933.8H1421.05V1860.55Z" fill="black"/>
<path d="M1494.3 1860.55H1421.05V1933.8H1494.3V1860.55Z" fill="black"/>
<path d="M1567.55 1860.55H1494.3V1933.8H1567.55V1860.55Z" fill="black"/>
<path d="M1933.8 1860.55H1860.55V1933.8H1933.8V1860.55Z" fill="black"/>
<path d="M2373.3 1860.55H2300.05V1933.8H2373.3V1860.55Z" fill="black"/>
<path d="M2446.55 1860.55H2373.3V1933.8H2446.55V1860.55Z" fill="black"/>
<path d="M2593.05 1860.55H2519.8V1933.8H2593.05V1860.55Z" fill="black"/>
<path d="M322.3 1933.8H249.05V2007.05H322.3V1933.8Z" fill="black"/>
<path d="M835.05 1933.8H761.8V2007.05H835.05V1933.8Z" fill="black"/>
<path d="M981.55 1933.8H908.3V2007.05H981.55V1933.8Z" fill="black"/>
<path d="M1201.3 1933.8H1128.05V2007.05H1201.3V1933.8Z" fill="black"/>
<path d="M1347.8 1933.8H1274.55V2007.05H1347.8V1933.8Z" fill="black"/>
<path d="M1421.05 1933.8H1347.8V2007.05H1421.05V1933.8Z" fill="black"/>
<path d="M1494.3 1933.8H1421.05V2007.05H1494.3V1933.8Z" fill="black"/>
<path d="M1640.8 1933.8H1567.55V2007.05H1640.8V1933.8Z" fill="black"/>
<path d="M1787.3 1933.8H1714.05V2007.05H1787.3V1933.8Z" fill="black"/>
<path d="M1860.55 1933.8H1787.3V2007.05H1860.55V1933.8Z" fill="black"/>
<path d="M2153.55 1933.8H2080.3V2007.05H2153.55V1933.8Z" fill="black"/>
<path d="M2300.05 1933.8H2226.8V2007.05H2300.05V1933.8Z" fill="black"/>
<path d="M2446.55 1933.8H2373.3V2007.05H2446.55V1933.8Z" fill="black"/>
<path d="M2519.8 1933.8H2446.55V2007.05H2519.8V1933.8Z" fill="black"/>
<path d="M322.3 2007.05H249.05V2080.3H322.3V2007.05Z" fill="black"/>
<path d="M468.8 2007.05H395.55V2080.3H468.8V2007.05Z" fill="black"/>
<path d="M542.05 2007.05H468.8V2080.3H542.05V2007.05Z" fill="black"/>
<path d="M615.3 2007.05H542.05V2080.3H615.3V2007.05Z" fill="black"/>
<path d="M688.55 2007.05H615.3V2080.3H688.55V2007.05Z" fill="black"/>
<path d="M761.8 2007.05H688.55V2080.3H761.8V2007.05Z" fill="black"/>
<path d="M835.05 2007.05H761.8V2080.3H835.05V2007.05Z" fill="black"/>
<path d="M908.3 2007.05H835.05V2080.3H908.3V2007.05Z" fill="black"/>
<path d="M981.55 2007.05H908.3V2080.3H981.55V2007.05Z" fill="black"/>
<path d="M1054.8 2007.05H981.55V2080.3H1054.8V2007.05Z" fill="black"/>
<path d="M1201.3 2007.05H1128.05V2080.3H1201.3V2007.05Z" fill="black"/>
<path d="M1274.55 2007.05H1201.3V2080.3H1274.55V2007.05Z" fill="black"/>
<path d="M1421.05 2007.05H1347.8V2080.3H1421.05V2007.05Z" fill="black"/>
<path d="M1567.55 2007.05H1494.3V2080.3H1567.55V2007.05Z" fill="black"/>
<path d="M1933.8 2007.05H1860.55V2080.3H1933.8V2007.05Z" fill="black"/>
<path d="M2080.3 2007.05H2007.05V2080.3H2080.3V2007.05Z" fill="black"/>
<path d="M2153.55 2007.05H2080.3V2080.3H2153.55V2007.05Z" fill="black"/>
<path d="M2226.8 2007.05H2153.55V2080.3H2226.8V2007.05Z" fill="black"/>
<path d="M2300.05 2007.05H2226.8V2080.3H2300.05V2007.05Z" fill="black"/>
<path d="M2373.3 2007.05H2300.05V2080.3H2373.3V2007.05Z" fill="black"/>
<path d="M2446.55 2007.05H2373.3V2080.3H2446.55V2007.05Z" fill="black"/>
<path d="M2666.3 2007.05H2593.05V2080.3H2666.3V2007.05Z" fill="black"/>
<path d="M908.3 2080.3H835.05V2153.55H908.3V2080.3Z" fill="black"/>
<path d="M981.55 2080.3H908.3V2153.55H981.55V2080.3Z" fill="black"/>
<path d="M1128.05 2080.3H1054.8V2153.55H1128.05V2080.3Z" fill="black"/>
<path d="M1274.55 2080.3H1201.3V2153.55H1274.55V2080.3Z" fill="black"/>
<path d="M1347.8 2080.3H1274.55V2153.55H1347.8V2080.3Z" fill="black"/>
<path d="M1494.3 2080.3H1421.05V2153.55H1494.3V2080.3Z" fill="black"/>
<path d="M1640.8 2080.3H1567.55V2153.55H1640.8V2080.3Z" fill="black"/>
<path d="M1714.05 2080.3H1640.8V2153.55H1714.05V2080.3Z" fill="black"/>
<path d="M1787.3 2080.3H1714.05V2153.55H1787.3V2080.3Z" fill="black"/>
<path d="M1860.55 2080.3H1787.3V2153.55H1860.55V2080.3Z" fill="black"/>
<path d="M2080.3 2080.3H2007.05V2153.55H2080.3V2080.3Z" fill="black"/>
<path d="M2373.3 2080.3H2300.05V2153.55H2373.3V2080.3Z" fill="black"/>
<path d="M2446.55 2080.3H2373.3V2153.55H2446.55V2080.3Z" fill="black"/>
<path d="M2519.8 2080.3H2446.55V2153.55H2519.8V2080.3Z" fill="black"/>
<path d="M2666.3 2080.3H2593.05V2153.55H2666.3V2080.3Z" fill="black"/>
<path d="M322.3 2153.55H249.05V2226.8H322.3V2153.55Z" fill="black"/>
<path d="M395.55 2153.55H322.3V2226.8H395.55V2153.55Z" fill="black"/>
<path d="M468.8 2153.55H395.55V2226.8H468.8V2153.55Z" fill="black"/>
<path d="M542.05 2153.55H468.8V2226.8H542.05V2153.55Z" fill="black"/>
<path d="M615.3 2153.55H542.05V2226.8H615.3V2153.55Z" fill="black"/>
<path d="M688.55 2153.55H615.3V2226.8H688.55V2153.55Z" fill="black"/>
<path d="M761.8 2153.55H688.55V2226.8H761.8V2153.55Z" fill="black"/>
<path d="M908.3 2153.55H835.05V2226.8H908.3V2153.55Z" fill="black"/>
<path d="M1201.3 2153.55H1128.05V2226.8H1201.3V2153.55Z" fill="black"/>
<path d="M1347.8 2153.55H1274.55V2226.8H1347.8V2153.55Z" fill="black"/>
<path d="M1421.05 2153.55H1347.8V2226.8H1421.05V2153.55Z" fill="black"/>
<path d="M1787.3 2153.55H1714.05V2226.8H1787.3V2153.55Z" fill="black"/>
<path d="M2007.05 2153.55H1933.8V2226.8H2007.05V2153.55Z" fill="black"/>
<path d="M2080.3 2153.55H2007.05V2226.8H2080.3V2153.55Z" fill="black"/>
<path d="M2226.8 2153.55H2153.55V2226.8H2226.8V2153.55Z" fill="black"/>
<path d="M2373.3 2153.55H2300.05V2226.8H2373.3V2153.55Z" fill="black"/>
<path d="M2446.55 2153.55H2373.3V2226.8H2446.55V2153.55Z" fill="black"/>
<path d="M2519.8 2153.55H2446.55V2226.8H2519.8V2153.55Z" fill="black"/>
<path d="M2593.05 2153.55H2519.8V2226.8H2593.05V2153.55Z" fill="black"/>
<path d="M322.3 2226.8H249.05V2300.05H322.3V2226.8Z" fill="black"/>
<path d="M761.8 2226.8H688.55V2300.05H761.8V2226.8Z" fill="black"/>
<path d="M981.55 2226.8H908.3V2300.05H981.55V2226.8Z" fill="black"/>
<path d="M1054.8 2226.8H981.55V2300.05H1054.8V2226.8Z" fill="black"/>
<path d="M1347.8 2226.8H1274.55V2300.05H1347.8V2226.8Z" fill="black"/>
<path d="M1787.3 2226.8H1714.05V2300.05H1787.3V2226.8Z" fill="black"/>
<path d="M1860.55 2226.8H1787.3V2300.05H1860.55V2226.8Z" fill="black"/>
<path d="M1933.8 2226.8H1860.55V2300.05H1933.8V2226.8Z" fill="black"/>
<path d="M2007.05 2226.8H1933.8V2300.05H2007.05V2226.8Z" fill="black"/>
<path d="M2080.3 2226.8H2007.05V2300.05H2080.3V2226.8Z" fill="black"/>
<path d="M2373.3 2226.8H2300.05V2300.05H2373.3V2226.8Z" fill="black"/>
<path d="M2446.55 2226.8H2373.3V2300.05H2446.55V2226.8Z" fill="black"/>
<path d="M2519.8 2226.8H2446.55V2300.05H2519.8V2226.8Z" fill="black"/>
<path d="M2666.3 2226.8H2593.05V2300.05H2666.3V2226.8Z" fill="black"/>
<path d="M322.3 2300.05H249.05V2373.3H322.3V2300.05Z" fill="black"/>
<path d="M468.8 2300.05H395.55V2373.3H468.8V2300.05Z" fill="black"/>
<path d="M542.05 2300.05H468.8V2373.3H542.05V2300.05Z" fill="black"/>
<path d="M615.3 2300.05H542.05V2373.3H615.3V2300.05Z" fill="black"/>
<path d="M761.8 2300.05H688.55V2373.3H761.8V2300.05Z" fill="black"/>
<path d="M908.3 2300.05H835.05V2373.3H908.3V2300.05Z" fill="black"/>
<path d="M981.55 2300.05H908.3V2373.3H981.55V2300.05Z" fill="black"/>
<path d="M1201.3 2300.05H1128.05V2373.3H1201.3V2300.05Z" fill="black"/>
<path d="M1274.55 2300.05H1201.3V2373.3H1274.55V2300.05Z" fill="black"/>
<path d="M1347.8 2300.05H1274.55V2373.3H1347.8V2300.05Z" fill="black"/>
<path d="M1421.05 2300.05H1347.8V2373.3H1421.05V2300.05Z" fill="black"/>
<path d="M1494.3 2300.05H1421.05V2373.3H1494.3V2300.05Z" fill="black"/>
<path d="M1567.55 2300.05H1494.3V2373.3H1567.55V2300.05Z" fill="black"/>
<path d="M1787.3 2300.05H1714.05V2373.3H1787.3V2300.05Z" fill="black"/>
<path d="M1933.8 2300.05H1860.55V2373.3H1933.8V2300.05Z" fill="black"/>
<path d="M2080.3 2300.05H2007.05V2373.3H2080.3V2300.05Z" fill="black"/>
<path d="M2153.55 2300.05H2080.3V2373.3H2153.55V2300.05Z" fill="black"/>
<path d="M2226.8 2300.05H2153.55V2373.3H2226.8V2300.05Z" fill="black"/>
<path d="M2300.05 2300.05H2226.8V2373.3H2300.05V2300.05Z" fill="black"/>
<path d="M2373.3 2300.05H2300.05V2373.3H2373.3V2300.05Z" fill="black"/>
<path d="M2446.55 2300.05H2373.3V2373.3H2446.55V2300.05Z" fill="black"/>
<path d="M2593.05 2300.05H2519.8V2373.3H2593.05V2300.05Z" fill="black"/>
<path d="M322.3 2373.3H249.05V2446.55H322.3V2373.3Z" fill="black"/>
<path d="M468.8 2373.3H395.55V2446.55H468.8V2373.3Z" fill="black"/>
<path d="M542.05 2373.3H468.8V2446.55H542.05V2373.3Z" fill="black"/>
<path d="M615.3 2373.3H542.05V2446.55H615.3V2373.3Z" fill="black"/>
<path d="M761.8 2373.3H688.55V2446.55H761.8V2373.3Z" fill="black"/>
<path d="M908.3 2373.3H835.05V2446.55H908.3V2373.3Z" fill="black"/>
<path d="M1054.8 2373.3H981.55V2446.55H1054.8V2373.3Z" fill="black"/>
<path d="M1128.05 2373.3H1054.8V2446.55H1128.05V2373.3Z" fill="black"/>
<path d="M1347.8 2373.3H1274.55V2446.55H1347.8V2373.3Z" fill="black"/>
<path d="M1494.3 2373.3H1421.05V2446.55H1494.3V2373.3Z" fill="black"/>
<path d="M1714.05 2373.3H1640.8V2446.55H1714.05V2373.3Z" fill="black"/>
<path d="M1787.3 2373.3H1714.05V2446.55H1787.3V2373.3Z" fill="black"/>
<path d="M2300.05 2373.3H2226.8V2446.55H2300.05V2373.3Z" fill="black"/>
<path d="M2373.3 2373.3H2300.05V2446.55H2373.3V2373.3Z" fill="black"/>
<path d="M2519.8 2373.3H2446.55V2446.55H2519.8V2373.3Z" fill="black"/>
<path d="M322.3 2446.55H249.05V2519.8H322.3V2446.55Z" fill="black"/>
<path d="M468.8 2446.55H395.55V2519.8H468.8V2446.55Z" fill="black"/>
<path d="M542.05 2446.55H468.8V2519.8H542.05V2446.55Z" fill="black"/>
<path d="M615.3 2446.55H542.05V2519.8H615.3V2446.55Z" fill="black"/>
<path d="M761.8 2446.55H688.55V2519.8H761.8V2446.55Z" fill="black"/>
<path d="M908.3 2446.55H835.05V2519.8H908.3V2446.55Z" fill="black"/>
<path d="M981.55 2446.55H908.3V2519.8H981.55V2446.55Z" fill="black"/>
<path d="M1054.8 2446.55H981.55V2519.8H1054.8V2446.55Z" fill="black"/>
<path d="M1274.55 2446.55H1201.3V2519.8H1274.55V2446.55Z" fill="black"/>
<path d="M1347.8 2446.55H1274.55V2519.8H1347.8V2446.55Z" fill="black"/>
<path d="M1421.05 2446.55H1347.8V2519.8H1421.05V2446.55Z" fill="black"/>
<path d="M1494.3 2446.55H1421.05V2519.8H1494.3V2446.55Z" fill="black"/>
<path d="M1787.3 2446.55H1714.05V2519.8H1787.3V2446.55Z" fill="black"/>
<path d="M1860.55 2446.55H1787.3V2519.8H1860.55V2446.55Z" fill="black"/>
<path d="M1933.8 2446.55H1860.55V2519.8H1933.8V2446.55Z" fill="black"/>
<path d="M2007.05 2446.55H1933.8V2519.8H2007.05V2446.55Z" fill="black"/>
<path d="M2080.3 2446.55H2007.05V2519.8H2080.3V2446.55Z" fill="black"/>
<path d="M2226.8 2446.55H2153.55V2519.8H2226.8V2446.55Z" fill="black"/>
<path d="M2446.55 2446.55H2373.3V2519.8H2446.55V2446.55Z" fill="black"/>
<path d="M2593.05 2446.55H2519.8V2519.8H2593.05V2446.55Z" fill="black"/>
<path d="M322.3 2519.8H249.05V2593.05H322.3V2519.8Z" fill="black"/>
<path d="M761.8 2519.8H688.55V2593.05H761.8V2519.8Z" fill="black"/>
<path d="M908.3 2519.8H835.05V2593.05H908.3V2519.8Z" fill="black"/>
<path d="M1054.8 2519.8H981.55V2593.05H1054.8V2519.8Z" fill="black"/>
<path d="M1201.3 2519.8H1128.05V2593.05H1201.3V2519.8Z" fill="black"/>
<path d="M1494.3 2519.8H1421.05V2593.05H1494.3V2519.8Z" fill="black"/>
<path d="M1640.8 2519.8H1567.55V2593.05H1640.8V2519.8Z" fill="black"/>
<path d="M1714.05 2519.8H1640.8V2593.05H1714.05V2519.8Z" fill="black"/>
<path d="M1787.3 2519.8H1714.05V2593.05H1787.3V2519.8Z" fill="black"/>
<path d="M1860.55 2519.8H1787.3V2593.05H1860.55V2519.8Z" fill="black"/>
<path d="M2153.55 2519.8H2080.3V2593.05H2153.55V2519.8Z" fill="black"/>
<path d="M2226.8 2519.8H2153.55V2593.05H2226.8V2519.8Z" fill="black"/>
<path d="M2519.8 2519.8H2446.55V2593.05H2519.8V2519.8Z" fill="black"/>
<path d="M322.3 2593.05H249.05V2666.3H322.3V2593.05Z" fill="black"/>
<path d="M395.55 2593.05H322.3V2666.3H395.55V2593.05Z" fill="black"/>
<path d="M468.8 2593.05H395.55V2666.3H468.8V2593.05Z" fill="black"/>
<path d="M542.05 2593.05H468.8V2666.3H542.05V2593.05Z" fill="black"/>
<path d="M615.3 2593.05H542.05V2666.3H615.3V2593.05Z" fill="black"/>
<path d="M688.55 2593.05H615.3V2666.3H688.55V2593.05Z" fill="black"/>
<path d="M761.8 2593.05H688.55V2666.3H761.8V2593.05Z" fill="black"/>
<path d="M908.3 2593.05H835.05V2666.3H908.3V2593.05Z" fill="black"/>
<path d="M981.55 2593.05H908.3V2666.3H981.55V2593.05Z" fill="black"/>
<path d="M1054.8 2593.05H981.55V2666.3H1054.8V2593.05Z" fill="black"/>
<path d="M1128.05 2593.05H1054.8V2666.3H1128.05V2593.05Z" fill="black"/>
<path d="M1201.3 2593.05H1128.05V2666.3H1201.3V2593.05Z" fill="black"/>
<path d="M1274.55 2593.05H1201.3V2666.3H1274.55V2593.05Z" fill="black"/>
<path d="M1347.8 2593.05H1274.55V2666.3H1347.8V2593.05Z" fill="black"/>
<path d="M1567.55 2593.05H1494.3V2666.3H1567.55V2593.05Z" fill="black"/>
<path d="M1640.8 2593.05H1567.55V2666.3H1640.8V2593.05Z" fill="black"/>
<path d="M1714.05 2593.05H1640.8V2666.3H1714.05V2593.05Z" fill="black"/>
<path d="M1933.8 2593.05H1860.55V2666.3H1933.8V2593.05Z" fill="black"/>
<path d="M2007.05 2593.05H1933.8V2666.3H2007.05V2593.05Z" fill="black"/>
<path d="M2080.3 2593.05H2007.05V2666.3H2080.3V2593.05Z" fill="black"/>
<path d="M2153.55 2593.05H2080.3V2666.3H2153.55V2593.05Z" fill="black"/>
<path d="M2373.3 2593.05H2300.05V2666.3H2373.3V2593.05Z" fill="black"/>
<path d="M2593.05 2593.05H2519.8V2666.3H2593.05V2593.05Z" fill="black"/>
</svg>
