<svg width="227" height="35" viewBox="0 0 227 35" fill="none" xmlns="http://www.w3.org/2000/svg">
<g clip-path="url(#clip0)">
<path d="M38.71 7.31006C34.33 7.31006 30.76 10.8701 30.76 15.2601C30.76 19.6401 34.32 23.2101 38.71 23.2101C43.09 23.2101 46.66 19.6501 46.66 15.2601C46.66 10.8701 43.09 7.31006 38.71 7.31006ZM38.71 22.1501C34.9 22.1501 31.82 19.0501 31.82 15.2601C31.82 11.4701 34.92 8.37006 38.71 8.37006C42.5 8.37006 45.6 11.4701 45.6 15.2601C45.6 19.0501 42.52 22.1501 38.71 22.1501Z" fill="#010202"/>
<path d="M39.23 14.78V11.82C39.52 11.93 39.78 12.13 39.97 12.4C40.12 12.65 40.45 12.71 40.69 12.55C40.94 12.4 41 12.07 40.84 11.83C40.47 11.26 39.89 10.88 39.23 10.74V9.9C39.23 9.61 39 9.38 38.71 9.38C38.42 9.38 38.19 9.61 38.19 9.9V10.73C37.04 10.98 36.16 12 36.16 13.23C36.16 14.46 37.04 15.49 38.19 15.73V18.69C37.9 18.58 37.64 18.38 37.45 18.11C37.3 17.86 36.97 17.8 36.73 17.96C36.48 18.11 36.42 18.44 36.58 18.68C36.95 19.25 37.53 19.63 38.19 19.77V20.6C38.19 20.89 38.42 21.12 38.71 21.12C39 21.12 39.23 20.89 39.23 20.6V19.77C40.38 19.52 41.26 18.5 41.26 17.27C41.26 16.04 40.38 15.01 39.23 14.78ZM38.19 14.63C37.62 14.42 37.21 13.86 37.21 13.22C37.21 12.58 37.62 12.02 38.19 11.81V14.63ZM39.23 18.68V15.86C39.8 16.07 40.21 16.63 40.21 17.27C40.22 17.91 39.8 18.47 39.23 18.68Z" fill="#010202"/>
<path fill-rule="evenodd" clip-rule="evenodd" d="M0 34.3399V0.319946H226.77V34.3399H0ZM49.28 29.9899C49.92 29.9899 50.26 29.2899 50.26 28.0199H50.25V6.64995C50.19 5.53995 49.39 4.67995 48.33 4.67995H29.29C28.19 4.67995 27.22 5.58995 27.22 6.64995V28.0199C27.22 28.9299 27.51 29.9899 28.29 29.9899C28.95 29.9899 30.01 28.9899 30.12 28.8799L31 28.0499C31.14 27.9199 31.34 27.8399 31.55 27.8399C31.76 27.8399 31.95 27.9099 32.1 28.0499L32.96 28.8799C33.52 29.4199 34.48 29.9899 35.19 29.9899C35.9 29.9899 36.87 29.4199 37.42 28.8799L38.28 28.0499C38.42 27.9199 38.62 27.8399 38.83 27.8399C39.05 27.8399 39.23 27.9099 39.37 28.0499L40.23 28.8799C40.79 29.4199 41.75 29.9899 42.46 29.9899C43.15 29.9899 44.14 29.4199 44.69 28.8799L45.55 28.0499C45.69 27.9199 45.89 27.8399 46.1 27.8399C46.31 27.8399 46.5 27.9099 46.65 28.0499L47.51 28.8799C47.94 29.2999 48.73 29.9899 49.28 29.9899ZM96.8818 22.1758C95.4873 22.1758 94.3506 21.748 93.4717 20.8926C92.5986 20.0371 92.1621 18.8975 92.1621 17.4736V17.2275C92.1621 16.2725 92.3467 15.4199 92.7158 14.6699C93.085 13.9141 93.6064 13.334 94.2803 12.9297C94.96 12.5195 95.7334 12.3145 96.6006 12.3145C97.9014 12.3145 98.9238 12.7246 99.668 13.5449C100.418 14.3652 100.793 15.5283 100.793 17.0342V18.0713H94.7373C94.8193 18.6924 95.0654 19.1904 95.4756 19.5654C95.8916 19.9404 96.416 20.1279 97.0488 20.1279C98.0273 20.1279 98.792 19.7734 99.3428 19.0645L100.591 20.4619C100.21 21.001 99.6943 21.4229 99.0439 21.7275C98.3936 22.0264 97.6729 22.1758 96.8818 22.1758ZM96.5918 14.3711C96.0879 14.3711 95.6777 14.541 95.3613 14.8809C95.0508 15.2207 94.8516 15.707 94.7637 16.3398H98.2969V16.1377C98.2852 15.5752 98.1328 15.1416 97.8398 14.8369C97.5469 14.5264 97.1309 14.3711 96.5918 14.3711ZM99.6855 10.9609V11.0664H97.6641L96.3105 9.79199L94.957 11.0664H92.9707V10.9258L95.5723 8.5H97.0488L99.6855 10.9609ZM72.5449 17.1572C72.5449 16.2139 72.7266 15.373 73.0898 14.6348C73.4531 13.8965 73.9746 13.3252 74.6543 12.9209C75.3398 12.5166 76.1338 12.3145 77.0361 12.3145C78.3193 12.3145 79.3652 12.707 80.1738 13.4922C80.9883 14.2773 81.4424 15.3438 81.5361 16.6914L81.5537 17.3418C81.5537 18.8008 81.1465 19.9727 80.332 20.8574C79.5176 21.7363 78.4248 22.1758 77.0537 22.1758C75.6826 22.1758 74.5869 21.7363 73.7666 20.8574C72.9521 19.9785 72.5449 18.7832 72.5449 17.2715V17.1572ZM75.085 17.3418C75.085 18.2441 75.2549 18.9355 75.5947 19.416C75.9346 19.8906 76.4209 20.1279 77.0537 20.1279C77.6689 20.1279 78.1494 19.8936 78.4951 19.4248C78.8408 18.9502 79.0137 18.1943 79.0137 17.1572C79.0137 16.2725 78.8408 15.5869 78.4951 15.1006C78.1494 14.6143 77.6631 14.3711 77.0361 14.3711C76.415 14.3711 75.9346 14.6143 75.5947 15.1006C75.2549 15.5811 75.085 16.3281 75.085 17.3418ZM67.5352 18.8975L69.3018 12.4902H71.9561L68.748 22H66.3223L63.1143 12.4902H65.7686L67.5352 18.8975ZM88.2158 19.7412C87.9229 19.999 87.542 20.1279 87.0732 20.1279C86.4639 20.1279 86.0098 19.9141 85.7109 19.4863C85.4121 19.0586 85.2627 18.3555 85.2627 17.377V17.1133C85.2627 16.1465 85.4121 15.4492 85.7109 15.0215C86.0156 14.5879 86.4639 14.3711 87.0557 14.3711C87.5361 14.3711 87.9229 14.5264 88.2158 14.8369C88.5088 15.1416 88.6611 15.54 88.6729 16.0322H91.0547C91.043 14.9072 90.6768 14.0078 89.9561 13.334C89.2412 12.6543 88.2891 12.3145 87.0996 12.3145C85.7402 12.3145 84.6709 12.751 83.8916 13.624C83.1123 14.4971 82.7227 15.666 82.7227 17.1309V17.2979C82.7227 18.8213 83.1152 20.0166 83.9004 20.8838C84.6855 21.7451 85.7578 22.1758 87.1172 22.1758C87.8438 22.1758 88.5059 22.0293 89.1035 21.7363C89.707 21.4375 90.1816 21.0215 90.5273 20.4883C90.873 19.9492 91.0488 19.3574 91.0547 18.7129H88.6729C88.6611 19.1406 88.5088 19.4834 88.2158 19.7412ZM112.052 12.4902L110.285 18.8975L108.519 12.4902H105.864L109.072 22H111.498L114.706 12.4902H112.052ZM121.201 22C121.084 21.7715 120.999 21.4873 120.946 21.1475C120.331 21.833 119.531 22.1758 118.547 22.1758C117.615 22.1758 116.842 21.9062 116.227 21.3672C115.617 20.8281 115.312 20.1484 115.312 19.3281C115.312 18.3203 115.685 17.5469 116.429 17.0078C117.179 16.4688 118.26 16.1963 119.672 16.1904H120.841V15.6455C120.841 15.2061 120.727 14.8545 120.498 14.5908C120.275 14.3271 119.921 14.1953 119.435 14.1953C119.007 14.1953 118.67 14.2979 118.424 14.5029C118.184 14.708 118.063 14.9893 118.063 15.3467H115.523C115.523 14.7959 115.693 14.2861 116.033 13.8174C116.373 13.3486 116.854 12.9824 117.475 12.7188C118.096 12.4492 118.793 12.3145 119.566 12.3145C120.738 12.3145 121.667 12.6104 122.353 13.2021C123.044 13.7881 123.39 14.6143 123.39 15.6807V19.8027C123.396 20.7051 123.521 21.3877 123.768 21.8506V22H121.201ZM119.101 20.2334C119.476 20.2334 119.821 20.1514 120.138 19.9873C120.454 19.8174 120.688 19.5918 120.841 19.3105V17.6758H119.892C118.62 17.6758 117.943 18.1152 117.861 18.9941L117.853 19.1436C117.853 19.46 117.964 19.7207 118.187 19.9258C118.409 20.1309 118.714 20.2334 119.101 20.2334ZM125.473 12.4902V22H128.021V12.4902H125.473ZM125.701 9.08887C125.449 9.33496 125.323 9.64844 125.323 10.0293C125.323 10.416 125.452 10.7324 125.71 10.9785C125.974 11.2246 126.319 11.3477 126.747 11.3477C127.175 11.3477 127.518 11.2246 127.775 10.9785C128.039 10.7324 128.171 10.416 128.171 10.0293C128.171 9.64844 128.042 9.33496 127.784 9.08887C127.526 8.84277 127.181 8.71973 126.747 8.71973C126.308 8.71973 125.959 8.84277 125.701 9.08887ZM134.235 17.1748C134.235 15.7158 134.581 14.541 135.272 13.6504C135.97 12.7598 136.907 12.3145 138.085 12.3145C139.128 12.3145 139.939 12.6719 140.52 13.3867L140.625 12.4902H142.928V21.6836C142.928 22.5156 142.737 23.2393 142.356 23.8545C141.981 24.4697 141.451 24.9385 140.766 25.2607C140.08 25.583 139.277 25.7441 138.357 25.7441C137.66 25.7441 136.98 25.6035 136.318 25.3223C135.656 25.0469 135.155 24.6895 134.815 24.25L135.94 22.7031C136.573 23.4121 137.341 23.7666 138.243 23.7666C138.917 23.7666 139.441 23.585 139.816 23.2217C140.191 22.8643 140.379 22.3545 140.379 21.6924V21.1826C139.793 21.8447 139.022 22.1758 138.067 22.1758C136.925 22.1758 135.999 21.7305 135.29 20.8398C134.587 19.9434 134.235 18.7568 134.235 17.2803V17.1748ZM136.775 17.3594C136.775 18.2207 136.948 18.8975 137.294 19.3896C137.64 19.876 138.114 20.1191 138.718 20.1191C139.491 20.1191 140.045 19.8291 140.379 19.249V15.25C140.039 14.6699 139.491 14.3799 138.735 14.3799C138.126 14.3799 137.646 14.6289 137.294 15.127C136.948 15.625 136.775 16.3691 136.775 17.3594ZM145.037 14.6348C144.674 15.373 144.492 16.2139 144.492 17.1572V17.2715C144.492 18.7832 144.899 19.9785 145.714 20.8574C146.534 21.7363 147.63 22.1758 149.001 22.1758C150.372 22.1758 151.465 21.7363 152.279 20.8574C153.094 19.9727 153.501 18.8008 153.501 17.3418L153.483 16.6914C153.39 15.3438 152.936 14.2773 152.121 13.4922C151.312 12.707 150.267 12.3145 148.983 12.3145C148.081 12.3145 147.287 12.5166 146.602 12.9209C145.922 13.3252 145.4 13.8965 145.037 14.6348ZM147.542 19.416C147.202 18.9355 147.032 18.2441 147.032 17.3418C147.032 16.3281 147.202 15.5811 147.542 15.1006C147.882 14.6143 148.362 14.3711 148.983 14.3711C149.61 14.3711 150.097 14.6143 150.442 15.1006C150.788 15.5869 150.961 16.2725 150.961 17.1572C150.961 18.1943 150.788 18.9502 150.442 19.4248C150.097 19.8936 149.616 20.1279 149.001 20.1279C148.368 20.1279 147.882 19.8906 147.542 19.416ZM160.216 19.3721C160.216 19.0615 160.061 18.8184 159.75 18.6426C159.445 18.4609 158.953 18.2998 158.273 18.1592C156.012 17.6846 154.881 16.7236 154.881 15.2764C154.881 14.4326 155.229 13.7295 155.927 13.167C156.63 12.5986 157.547 12.3145 158.678 12.3145C159.885 12.3145 160.849 12.5986 161.569 13.167C162.296 13.7354 162.659 14.4736 162.659 15.3818H160.119C160.119 15.0186 160.002 14.7197 159.768 14.4854C159.533 14.2451 159.167 14.125 158.669 14.125C158.241 14.125 157.91 14.2217 157.676 14.415C157.441 14.6084 157.324 14.8545 157.324 15.1533C157.324 15.4346 157.456 15.6631 157.72 15.8389C157.989 16.0088 158.44 16.1582 159.073 16.2871C159.706 16.4102 160.239 16.5508 160.673 16.709C162.015 17.2012 162.686 18.0537 162.686 19.2666C162.686 20.1338 162.313 20.8369 161.569 21.376C160.825 21.9092 159.864 22.1758 158.687 22.1758C157.89 22.1758 157.181 22.0352 156.56 21.7539C155.944 21.4668 155.461 21.0771 155.109 20.585C154.758 20.0869 154.582 19.5508 154.582 18.9766H156.99C157.014 19.4277 157.181 19.7734 157.491 20.0137C157.802 20.2539 158.218 20.374 158.739 20.374C159.226 20.374 159.592 20.2832 159.838 20.1016C160.09 19.9141 160.216 19.6709 160.216 19.3721ZM167.37 12.4902V10.1523H164.83V12.4902H163.441V14.3535H164.83V19.4775C164.865 21.2764 165.773 22.1758 167.555 22.1758C168.082 22.1758 168.595 22.0996 169.093 21.9473V20.0225C168.876 20.0635 168.627 20.084 168.346 20.084C167.965 20.084 167.707 20.0078 167.572 19.8555C167.438 19.7031 167.37 19.4512 167.37 19.0996V14.3535H168.996V12.4902H167.37ZM175.922 22C175.805 21.7715 175.72 21.4873 175.667 21.1475C175.052 21.833 174.252 22.1758 173.268 22.1758C172.336 22.1758 171.562 21.9062 170.947 21.3672C170.338 20.8281 170.033 20.1484 170.033 19.3281C170.033 18.3203 170.405 17.5469 171.149 17.0078C171.899 16.4688 172.98 16.1963 174.393 16.1904H175.562V15.6455C175.562 15.2061 175.447 14.8545 175.219 14.5908C174.996 14.3271 174.642 14.1953 174.155 14.1953C173.728 14.1953 173.391 14.2979 173.145 14.5029C172.904 14.708 172.784 14.9893 172.784 15.3467H170.244C170.244 14.7959 170.414 14.2861 170.754 13.8174C171.094 13.3486 171.574 12.9824 172.195 12.7188C172.816 12.4492 173.514 12.3145 174.287 12.3145C175.459 12.3145 176.388 12.6104 177.073 13.2021C177.765 13.7881 178.11 14.6143 178.11 15.6807V19.8027C178.116 20.7051 178.242 21.3877 178.488 21.8506V22H175.922ZM173.821 20.2334C174.196 20.2334 174.542 20.1514 174.858 19.9873C175.175 19.8174 175.409 19.5918 175.562 19.3105V17.6758H174.612C173.341 17.6758 172.664 18.1152 172.582 18.9941L172.573 19.1436C172.573 19.46 172.685 19.7207 172.907 19.9258C173.13 20.1309 173.435 20.2334 173.821 20.2334ZM184.491 14.8018C184.755 14.8018 185.06 14.8252 185.405 14.8721L185.44 12.4287C185.194 12.3525 184.931 12.3145 184.649 12.3145C183.747 12.3145 183.041 12.751 182.531 13.624L182.461 12.4902H180.062V22H182.602V15.7773C182.9 15.127 183.53 14.8018 184.491 14.8018Z" fill="black"/>
</g>
<defs>
<clipPath id="clip0">
<rect width="226.77" height="34.02" fill="white"/>
</clipPath>
</defs>
</svg>
