<?xml version="1.0" encoding="utf-8"?>
<!-- Generator: Adobe Illustrator 24.0.1, SVG Export Plug-In . SVG Version: 6.00 Build 0)  -->
<svg version="1.1" id="Camada_1" xmlns="http://www.w3.org/2000/svg" xmlns:xlink="http://www.w3.org/1999/xlink" x="0px" y="0px"
	 viewBox="0 0 226.77 34.02" style="enable-background:new 0 0 226.77 34.02;" xml:space="preserve">
<style type="text/css">
	.st0{display:none;}
	.st1{display:inline;fill:#010202;}
	.st2{fill:#010202;}
</style>
<g class="st0">
	<path class="st1" d="M78.69,15.39c-0.49,0-0.9,0.18-1.22,0.54c-0.32,0.36-0.48,0.85-0.47,1.46h3.37c-0.02-0.65-0.18-1.15-0.51-1.49
		C79.54,15.56,79.15,15.39,78.69,15.39z"/>
	<path class="st1" d="M63.65,15.5c-0.59,0-1.08,0.22-1.49,0.67c-0.4,0.45-0.6,1.1-0.6,1.94c0,0.85,0.2,1.49,0.6,1.94
		s0.9,0.67,1.49,0.67c0.59,0,1.08-0.22,1.48-0.67s0.6-1.1,0.6-1.96c0-0.84-0.2-1.48-0.6-1.93C64.73,15.73,64.24,15.5,63.65,15.5z"/>
	<path class="st1" d="M98.43,19.03c-0.29,0.21-0.44,0.47-0.44,0.79c0,0.32,0.12,0.59,0.35,0.82c0.24,0.23,0.54,0.35,0.9,0.35
		c0.41,0,0.8-0.13,1.17-0.4c0.27-0.2,0.45-0.45,0.54-0.75c0.06-0.19,0.09-0.56,0.09-1.1v-0.45c-0.29,0.1-0.75,0.21-1.37,0.35
		S98.63,18.9,98.43,19.03z"/>
	<path class="st1" d="M122.59,15.39c-0.49,0-0.9,0.18-1.22,0.54c-0.32,0.36-0.48,0.85-0.47,1.46h3.37
		c-0.02-0.65-0.18-1.15-0.51-1.49C123.44,15.56,123.05,15.39,122.59,15.39z"/>
	<path class="st1" d="M40.06,16.67c-1.16,0-2.1,0.93-2.1,2.08s0.94,2.08,2.1,2.08c1.16,0,2.1-0.93,2.1-2.08S41.22,16.67,40.06,16.67
		z M40.06,19.61c-0.48,0-0.87-0.39-0.87-0.86c0-0.48,0.39-0.86,0.87-0.86c0.48,0,0.87,0.39,0.87,0.86
		C40.93,19.22,40.54,19.61,40.06,19.61z"/>
	<path class="st1" d="M36.63,15.26c0-1.15-0.94-2.08-2.1-2.08c-1.16,0-2.1,0.93-2.1,2.08s0.94,2.08,2.1,2.08
		C35.69,17.33,36.63,16.4,36.63,15.26z M33.66,15.26c0-0.48,0.39-0.86,0.87-0.86c0.48,0,0.87,0.39,0.87,0.86
		c0,0.48-0.39,0.86-0.87,0.86C34.05,16.12,33.66,15.73,33.66,15.26z"/>
	<path class="st1" d="M40.37,13.34c-0.22-0.18-0.54-0.15-0.72,0.07l-5.5,6.56c-0.18,0.22-0.15,0.53,0.07,0.71
		c0.22,0.18,0.54,0.15,0.72-0.07l5.5-6.56C40.62,13.84,40.59,13.52,40.37,13.34z"/>
	<path class="st1" d="M0,0v34.02h226.77V0H0z M47.66,21.26l-1.84,1.32c-0.26,0.18-0.45,0.44-0.54,0.74l-0.7,2.14
		c-0.2,0.61-0.78,1.02-1.42,1.02h-2.27c-0.32,0-0.62,0.1-0.88,0.28l-1.84,1.32c-0.52,0.38-1.24,0.38-1.76,0l-1.84-1.32
		c-0.26-0.18-0.56-0.28-0.88-0.28h-2.27c-0.65,0-1.22-0.41-1.42-1.02l-0.7-2.14c-0.1-0.3-0.29-0.56-0.54-0.74l-1.84-1.32
		c-0.52-0.38-0.74-1.05-0.54-1.66l0.7-2.14c0.1-0.3,0.1-0.62,0-0.92l-0.7-2.14c-0.2-0.61,0.02-1.28,0.54-1.66l1.84-1.32
		c0.26-0.18,0.45-0.44,0.54-0.74l0.7-2.14c0.2-0.61,0.78-1.02,1.42-1.02h2.27c0.32,0,0.62-0.1,0.88-0.28l1.84-1.32
		c0.52-0.38,1.24-0.38,1.76,0l1.84,1.32c0.26,0.18,0.56,0.28,0.88,0.28h2.27c0.65,0,1.22,0.41,1.42,1.02l0.7,2.14
		c0.1,0.3,0.29,0.56,0.54,0.74l1.84,1.32c0.52,0.38,0.74,1.05,0.54,1.66l-0.7,2.14c-0.1,0.3-0.1,0.62,0,0.92l0.7,2.14
		C48.41,20.21,48.19,20.88,47.66,21.26z M66.8,21.31c-0.83,0.85-1.88,1.27-3.15,1.27c-0.78,0-1.53-0.18-2.24-0.53
		c-0.71-0.35-1.25-0.87-1.62-1.55s-0.55-1.51-0.55-2.49c0-0.75,0.18-1.48,0.55-2.18c0.37-0.7,0.89-1.24,1.57-1.61
		c0.68-0.37,1.43-0.55,2.27-0.55c1.29,0,2.35,0.42,3.17,1.26c0.82,0.84,1.24,1.9,1.24,3.18C68.05,19.39,67.64,20.46,66.8,21.31z
		 M74.29,12.27c-0.36-0.09-0.7-0.13-1.04-0.13c-0.33,0-0.56,0.08-0.7,0.23c-0.14,0.15-0.21,0.45-0.21,0.88v0.6h1.69v1.78h-1.69v6.76
		h-2.26v-6.76h-1.25v-1.78h1.25v-0.64c0-0.72,0.08-1.25,0.23-1.61c0.15-0.35,0.43-0.64,0.84-0.86s0.93-0.33,1.55-0.33
		c0.64,0,1.27,0.1,1.89,0.29L74.29,12.27z M77.5,20.33c0.35,0.37,0.78,0.56,1.3,0.56c0.35,0,0.65-0.1,0.89-0.29
		c0.24-0.19,0.42-0.5,0.55-0.93l2.25,0.38c-0.29,0.82-0.75,1.45-1.37,1.88c-0.62,0.43-1.4,0.65-2.34,0.65
		c-1.48,0-2.58-0.48-3.29-1.45c-0.56-0.78-0.84-1.76-0.84-2.94c0-1.41,0.37-2.52,1.11-3.32c0.74-0.8,1.67-1.2,2.8-1.2
		c1.27,0,2.27,0.42,3,1.26c0.73,0.84,1.08,2.12,1.05,3.85h-5.66C76.97,19.44,77.15,19.96,77.5,20.33z M89.18,16.06
		c-0.38-0.25-0.73-0.37-1.06-0.37c-0.32,0-0.58,0.09-0.8,0.26c-0.22,0.17-0.39,0.49-0.52,0.94c-0.13,0.46-0.19,1.41-0.19,2.86v2.63
		h-2.26v-8.53h2.1v1.21c0.36-0.57,0.68-0.95,0.97-1.13s0.61-0.27,0.98-0.27c0.51,0,1.01,0.14,1.49,0.43L89.18,16.06z M93.17,22.58
		c-0.41,0-0.77-0.07-1.1-0.2c-0.33-0.14-0.57-0.31-0.72-0.53c-0.15-0.22-0.26-0.51-0.32-0.88c-0.05-0.26-0.07-0.79-0.07-1.59v-3.72
		h-1.04v-1.8h1.04v-1.69l2.27-1.32v3.01h1.54v1.8h-1.54v3.44c0,0.7,0.01,1.1,0.04,1.22s0.1,0.21,0.2,0.29
		c0.1,0.08,0.23,0.11,0.38,0.11c0.21,0,0.51-0.07,0.91-0.22l0.19,1.75C94.42,22.47,93.83,22.58,93.17,22.58z M101.51,22.39
		c-0.06-0.15-0.13-0.37-0.22-0.67c-0.04-0.13-0.06-0.22-0.08-0.26c-0.39,0.38-0.8,0.66-1.24,0.84c-0.44,0.19-0.91,0.28-1.41,0.28
		c-0.88,0-1.57-0.24-2.08-0.71c-0.51-0.48-0.76-1.08-0.76-1.81c0-0.48,0.12-0.91,0.35-1.29c0.23-0.38,0.55-0.67,0.97-0.87
		s1.01-0.38,1.8-0.53c1.05-0.2,1.79-0.38,2.19-0.55v-0.23c0-0.43-0.11-0.74-0.32-0.93s-0.62-0.28-1.21-0.28
		c-0.4,0-0.71,0.08-0.94,0.24c-0.23,0.16-0.41,0.44-0.55,0.83l-2.05-0.37c0.23-0.82,0.63-1.44,1.19-1.83s1.4-0.59,2.51-0.59
		c1.01,0,1.76,0.12,2.25,0.36c0.49,0.24,0.84,0.54,1.04,0.91c0.2,0.37,0.3,1.04,0.3,2.02l-0.02,2.63c0,0.75,0.04,1.3,0.11,1.66
		s0.21,0.74,0.41,1.14H101.51z M111.67,21.74c-0.65,0.56-1.62,0.84-2.9,0.84c-1.16,0-2.08-0.24-2.76-0.71
		c-0.68-0.47-1.12-1.11-1.33-1.92l2.27-0.35c0.1,0.44,0.29,0.77,0.59,1s0.71,0.34,1.24,0.34c0.58,0,1.02-0.11,1.32-0.32
		c0.2-0.15,0.3-0.35,0.3-0.6c0-0.17-0.05-0.31-0.16-0.43c-0.11-0.11-0.36-0.21-0.75-0.3c-1.82-0.4-2.98-0.77-3.46-1.1
		c-0.67-0.46-1.01-1.1-1.01-1.92c0-0.74,0.29-1.36,0.88-1.86c0.58-0.5,1.49-0.76,2.71-0.76c1.17,0,2.04,0.19,2.6,0.57
		c0.57,0.38,0.96,0.94,1.17,1.69l-2.13,0.39c-0.09-0.33-0.26-0.59-0.52-0.76c-0.25-0.18-0.62-0.27-1.09-0.27
		c-0.59,0-1.02,0.08-1.28,0.25c-0.17,0.12-0.26,0.27-0.26,0.46c0,0.16,0.08,0.3,0.23,0.41c0.2,0.15,0.91,0.36,2.11,0.63
		c1.2,0.27,2.04,0.61,2.52,1c0.47,0.4,0.71,0.96,0.71,1.68C112.65,20.5,112.33,21.17,111.67,21.74z M121.4,20.33
		c0.35,0.37,0.78,0.56,1.3,0.56c0.35,0,0.65-0.1,0.89-0.29c0.24-0.19,0.42-0.5,0.55-0.93l2.25,0.38c-0.29,0.82-0.75,1.45-1.37,1.88
		c-0.62,0.43-1.4,0.65-2.34,0.65c-1.48,0-2.58-0.48-3.29-1.45c-0.56-0.78-0.84-1.76-0.84-2.94c0-1.41,0.37-2.52,1.11-3.32
		s1.67-1.2,2.8-1.2c1.27,0,2.27,0.42,3,1.26c0.73,0.84,1.08,2.12,1.05,3.85h-5.66C120.87,19.44,121.05,19.96,121.4,20.33z
		 M133.4,22.39l-1.74-2.64l-1.75,2.64h-2.64l3.08-4.39l-2.95-4.14h2.76l1.51,2.35l1.59-2.35h2.65l-2.89,4.04l3.16,4.49H133.4z
		 M143.73,21.8c-0.65,0.52-1.53,0.78-2.63,0.78c-1.25,0-2.24-0.39-2.98-1.18c-0.74-0.79-1.11-1.88-1.11-3.27
		c0-1.41,0.37-2.51,1.12-3.29c0.74-0.78,1.75-1.18,3.02-1.18c1.04,0,1.86,0.22,2.48,0.67s1.05,1.13,1.32,2.04l-2.22,0.4
		c-0.08-0.44-0.25-0.78-0.51-1c-0.26-0.22-0.61-0.34-1.03-0.34c-0.56,0-1.01,0.19-1.34,0.58c-0.33,0.39-0.5,1.04-0.5,1.95
		c0,1.01,0.17,1.73,0.51,2.14c0.34,0.42,0.8,0.63,1.37,0.63c0.43,0,0.78-0.12,1.05-0.37c0.27-0.24,0.47-0.66,0.58-1.26l2.22,0.38
		C144.82,20.51,144.38,21.28,143.73,21.8z M148.91,22.39h-2.26V10.61h2.26V22.39z M158.93,22.39h-2.1v-1.28
		c-0.31,0.46-0.72,0.81-1.22,1.08c-0.51,0.26-1.04,0.39-1.6,0.39c-0.57,0-1.09-0.12-1.54-0.38s-0.78-0.61-0.99-1.06
		c-0.2-0.46-0.3-1.08-0.3-1.89v-5.4h2.26v3.92c0,1.2,0.04,1.94,0.12,2.21s0.23,0.48,0.45,0.64c0.22,0.16,0.5,0.24,0.83,0.24
		c0.39,0,0.73-0.11,1.04-0.32c0.31-0.21,0.51-0.47,0.63-0.79s0.17-1.08,0.17-2.3v-3.6h2.26V22.39z M167.46,21.74
		c-0.65,0.56-1.62,0.84-2.9,0.84c-1.16,0-2.08-0.24-2.76-0.71c-0.68-0.47-1.12-1.11-1.33-1.92l2.27-0.35c0.1,0.44,0.29,0.77,0.59,1
		s0.71,0.34,1.24,0.34c0.58,0,1.02-0.11,1.32-0.32c0.2-0.15,0.3-0.35,0.3-0.6c0-0.17-0.05-0.31-0.16-0.43
		c-0.11-0.11-0.36-0.21-0.76-0.3c-1.82-0.4-2.97-0.77-3.46-1.1c-0.67-0.46-1.01-1.1-1.01-1.92c0-0.74,0.29-1.36,0.88-1.86
		s1.49-0.76,2.72-0.76c1.17,0,2.03,0.19,2.6,0.57c0.57,0.38,0.96,0.94,1.17,1.69l-2.13,0.39c-0.09-0.33-0.26-0.59-0.52-0.76
		c-0.25-0.18-0.62-0.27-1.09-0.27c-0.59,0-1.02,0.08-1.28,0.25c-0.17,0.12-0.26,0.27-0.26,0.46c0,0.16,0.07,0.3,0.22,0.41
		c0.2,0.15,0.91,0.36,2.11,0.63s2.04,0.61,2.52,1c0.47,0.4,0.71,0.96,0.71,1.68C168.44,20.5,168.12,21.17,167.46,21.74z
		 M172.68,22.39h-2.26v-8.53h2.26V22.39z M172.68,12.7h-2.26v-2.09h2.26V12.7z M179.37,22.39h-2.03l-3.44-8.53h2.37l1.61,4.35
		l0.47,1.45c0.12-0.37,0.2-0.61,0.23-0.73c0.08-0.24,0.16-0.48,0.24-0.72l1.62-4.35h2.32L179.37,22.39z M189.32,22.39
		c-0.06-0.15-0.13-0.37-0.22-0.67c-0.04-0.13-0.06-0.22-0.08-0.26c-0.39,0.38-0.8,0.66-1.24,0.84c-0.44,0.19-0.91,0.28-1.41,0.28
		c-0.88,0-1.57-0.24-2.08-0.71s-0.76-1.08-0.76-1.81c0-0.48,0.12-0.91,0.35-1.29c0.23-0.38,0.55-0.67,0.97-0.87s1.01-0.38,1.8-0.53
		c1.05-0.2,1.79-0.38,2.19-0.55v-0.23c0-0.43-0.11-0.74-0.32-0.93c-0.21-0.18-0.62-0.28-1.21-0.28c-0.4,0-0.71,0.08-0.94,0.24
		c-0.22,0.16-0.41,0.44-0.55,0.83l-2.05-0.37c0.23-0.82,0.63-1.44,1.19-1.83c0.56-0.4,1.4-0.59,2.51-0.59
		c1.01,0,1.76,0.12,2.25,0.36c0.49,0.24,0.84,0.54,1.04,0.91c0.2,0.37,0.3,1.04,0.3,2.02l-0.02,2.63c0,0.75,0.04,1.3,0.11,1.66
		s0.21,0.74,0.41,1.14H189.32z M199.48,21.74c-0.65,0.56-1.62,0.84-2.9,0.84c-1.16,0-2.08-0.24-2.76-0.71
		c-0.68-0.47-1.12-1.11-1.33-1.92l2.27-0.35c0.1,0.44,0.29,0.77,0.59,1s0.71,0.34,1.24,0.34c0.58,0,1.02-0.11,1.32-0.32
		c0.2-0.15,0.3-0.35,0.3-0.6c0-0.17-0.05-0.31-0.16-0.43c-0.11-0.11-0.36-0.21-0.76-0.3c-1.82-0.4-2.97-0.77-3.46-1.1
		c-0.67-0.46-1.01-1.1-1.01-1.92c0-0.74,0.29-1.36,0.88-1.86s1.49-0.76,2.72-0.76c1.17,0,2.03,0.19,2.6,0.57
		c0.57,0.38,0.96,0.94,1.17,1.69l-2.13,0.39c-0.09-0.33-0.26-0.59-0.52-0.76c-0.25-0.18-0.62-0.27-1.09-0.27
		c-0.59,0-1.02,0.08-1.28,0.25c-0.17,0.12-0.26,0.27-0.26,0.46c0,0.16,0.07,0.3,0.22,0.41c0.2,0.15,0.91,0.36,2.11,0.63
		s2.04,0.61,2.52,1c0.47,0.4,0.71,0.96,0.71,1.68C200.46,20.5,200.14,21.17,199.48,21.74z"/>
	<path class="st1" d="M186.24,19.03c-0.29,0.21-0.44,0.47-0.44,0.79c0,0.32,0.12,0.59,0.35,0.82c0.24,0.23,0.54,0.35,0.9,0.35
		c0.41,0,0.8-0.13,1.17-0.4c0.27-0.2,0.45-0.45,0.54-0.75c0.06-0.19,0.09-0.56,0.09-1.1v-0.45c-0.29,0.1-0.75,0.21-1.37,0.35
		S186.44,18.9,186.24,19.03z"/>
</g>
<g>
	<path class="st2" d="M153.91,14.59c-0.54,0-0.99,0.21-1.34,0.63s-0.53,1.06-0.53,1.92c0,0.91,0.18,1.57,0.53,1.99
		c0.35,0.42,0.78,0.63,1.3,0.63c0.55,0,1.02-0.22,1.4-0.65c0.38-0.43,0.57-1.07,0.57-1.92c0-0.88-0.18-1.54-0.55-1.97
		C154.92,14.81,154.46,14.59,153.91,14.59z"/>
	<path class="st2" d="M38.71,7.31c-4.38,0-7.95,3.56-7.95,7.95c0,4.38,3.56,7.95,7.95,7.95c4.38,0,7.95-3.56,7.95-7.95
		C46.66,10.87,43.09,7.31,38.71,7.31z M38.71,22.15c-3.81,0-6.89-3.1-6.89-6.89s3.1-6.89,6.89-6.89c3.79,0,6.89,3.1,6.89,6.89
		S42.52,22.15,38.71,22.15z"/>
	<path class="st2" d="M130.15,14.59c-0.54,0-0.98,0.21-1.35,0.64s-0.54,1.06-0.54,1.91c0,0.91,0.13,1.57,0.38,1.98
		c0.36,0.59,0.87,0.88,1.53,0.88c0.52,0,0.96-0.22,1.33-0.66c0.36-0.44,0.55-1.1,0.55-1.98c0-0.98-0.18-1.69-0.53-2.12
		S130.71,14.59,130.15,14.59z"/>
	<path class="st2" d="M120.3,14.71c-0.59,0-1.08,0.22-1.49,0.67c-0.4,0.45-0.6,1.1-0.6,1.94s0.2,1.49,0.6,1.94
		c0.4,0.45,0.9,0.67,1.49,0.67s1.08-0.22,1.48-0.67c0.4-0.45,0.6-1.1,0.6-1.96c0-0.84-0.2-1.48-0.6-1.93
		C121.38,14.93,120.89,14.71,120.3,14.71z"/>
	<path class="st2" d="M139.91,14.59c-0.49,0-0.9,0.18-1.22,0.54s-0.48,0.85-0.47,1.46h3.37c-0.02-0.65-0.18-1.15-0.51-1.49
		C140.76,14.76,140.37,14.59,139.91,14.59z"/>
	<path class="st2" d="M110.46,14.65c-0.55,0-1.01,0.21-1.37,0.64s-0.55,1.06-0.55,1.89c0,0.96,0.19,1.67,0.57,2.12
		c0.38,0.46,0.84,0.69,1.39,0.69c0.52,0,0.96-0.21,1.31-0.63c0.35-0.42,0.52-1.11,0.52-2.07c0-0.89-0.18-1.56-0.54-1.99
		C111.43,14.87,110.99,14.65,110.46,14.65z"/>
	<path class="st2" d="M164.17,14.71c-0.59,0-1.08,0.22-1.49,0.67c-0.4,0.45-0.6,1.1-0.6,1.94s0.2,1.49,0.6,1.94
		c0.4,0.45,0.9,0.67,1.49,0.67s1.08-0.22,1.48-0.67c0.4-0.45,0.6-1.1,0.6-1.96c0-0.84-0.2-1.48-0.6-1.93
		C165.25,14.93,164.75,14.71,164.17,14.71z"/>
	<path class="st2" d="M96.04,14.59c-0.49,0-0.9,0.18-1.22,0.54s-0.48,0.85-0.47,1.46h3.37c-0.02-0.65-0.18-1.15-0.51-1.49
		C96.89,14.76,96.5,14.59,96.04,14.59z"/>
	<path class="st2" d="M0,0.32v34.02h226.77V0.32H0z M94.94,9.61h2.09l1.66,2.37h-1.82l-0.93-1.2l-0.87,1.2h-1.82L94.94,9.61z
		 M50.26,28.02c0,1.27-0.34,1.97-0.98,1.97c-0.55,0-1.34-0.69-1.77-1.11l-0.86-0.83c-0.15-0.14-0.34-0.21-0.55-0.21
		c-0.21,0-0.41,0.08-0.55,0.21l-0.86,0.83c-0.55,0.54-1.54,1.11-2.23,1.11c-0.71,0-1.67-0.57-2.23-1.11l-0.86-0.83
		c-0.14-0.14-0.32-0.21-0.54-0.21c-0.21,0-0.41,0.08-0.55,0.21l-0.86,0.83c-0.55,0.54-1.52,1.11-2.23,1.11s-1.67-0.57-2.23-1.11
		l-0.86-0.83c-0.15-0.14-0.34-0.21-0.55-0.21s-0.41,0.08-0.55,0.21l-0.88,0.83c-0.11,0.11-1.17,1.11-1.83,1.11
		c-0.78,0-1.07-1.06-1.07-1.97V6.65c0-1.06,0.97-1.97,2.07-1.97h19.04c1.06,0,1.86,0.86,1.92,1.97V28.02z M68.68,21.59h-2.03
		l-3.44-8.53h2.37l1.61,4.35l0.47,1.45c0.12-0.37,0.2-0.61,0.23-0.73c0.07-0.24,0.16-0.48,0.24-0.72l1.62-4.35h2.32L68.68,21.59z
		 M80.48,20.51c-0.83,0.85-1.88,1.27-3.15,1.27c-0.78,0-1.53-0.18-2.24-0.53c-0.71-0.35-1.25-0.87-1.62-1.55s-0.55-1.51-0.55-2.49
		c0-0.75,0.18-1.48,0.55-2.18s0.89-1.24,1.57-1.61c0.68-0.37,1.43-0.55,2.27-0.55c1.29,0,2.35,0.42,3.17,1.26
		c0.82,0.84,1.24,1.9,1.24,3.18C81.73,18.59,81.31,19.66,80.48,20.51z M89.72,21c-0.65,0.52-1.53,0.78-2.63,0.78
		c-1.25,0-2.24-0.39-2.98-1.18S83,18.72,83,17.33c0-1.41,0.37-2.51,1.12-3.29c0.74-0.78,1.75-1.18,3.02-1.18
		c1.04,0,1.86,0.22,2.48,0.67s1.05,1.13,1.32,2.04l-2.23,0.4c-0.08-0.44-0.25-0.78-0.51-1c-0.27-0.22-0.61-0.34-1.03-0.34
		c-0.56,0-1.01,0.19-1.35,0.58c-0.33,0.39-0.5,1.04-0.5,1.95c0,1.01,0.17,1.73,0.51,2.14c0.34,0.42,0.8,0.63,1.37,0.63
		c0.43,0,0.78-0.12,1.05-0.37c0.27-0.24,0.47-0.66,0.58-1.26l2.22,0.38C90.82,19.72,90.38,20.48,89.72,21z M94.85,19.54
		c0.35,0.37,0.78,0.56,1.3,0.56c0.35,0,0.65-0.1,0.89-0.29c0.24-0.19,0.42-0.5,0.55-0.93l2.25,0.38c-0.29,0.82-0.75,1.45-1.37,1.88
		c-0.62,0.43-1.4,0.65-2.34,0.65c-1.48,0-2.58-0.48-3.29-1.45c-0.56-0.78-0.84-1.76-0.84-2.94c0-1.41,0.37-2.52,1.11-3.32
		c0.74-0.8,1.67-1.2,2.8-1.2c1.27,0,2.27,0.42,3,1.26c0.73,0.84,1.08,2.12,1.05,3.85H94.3C94.32,18.64,94.5,19.16,94.85,19.54z
		 M113.58,20.6c-0.7,0.79-1.54,1.18-2.53,1.18c-0.47,0-0.9-0.09-1.28-0.28c-0.38-0.19-0.79-0.51-1.21-0.96v4.3h-2.26V13.06h2.1v1.25
		c0.27-0.43,0.64-0.78,1.11-1.04c0.47-0.27,0.98-0.4,1.55-0.4c0.99,0,1.83,0.39,2.52,1.17c0.69,0.78,1.04,1.86,1.04,3.25
		C114.63,18.7,114.28,19.81,113.58,20.6z M123.45,20.51c-0.83,0.85-1.88,1.27-3.14,1.27c-0.78,0-1.53-0.18-2.24-0.53
		c-0.71-0.35-1.25-0.87-1.62-1.55s-0.55-1.51-0.55-2.49c0-0.75,0.18-1.48,0.55-2.18s0.89-1.24,1.57-1.61
		c0.68-0.37,1.43-0.55,2.27-0.55c1.29,0,2.35,0.42,3.17,1.26c0.83,0.84,1.24,1.9,1.24,3.18C124.7,18.59,124.28,19.66,123.45,20.51z
		 M134.29,21.59h-2.1v-1.25c-0.35,0.49-0.76,0.85-1.23,1.09c-0.47,0.24-0.95,0.36-1.43,0.36c-0.98,0-1.82-0.39-2.52-1.18
		c-0.7-0.79-1.05-1.89-1.05-3.31c0-1.45,0.34-2.54,1.02-3.3c0.68-0.75,1.54-1.13,2.58-1.13c0.95,0,1.78,0.4,2.48,1.19V9.81h2.26
		V21.59z M138.72,19.54c0.35,0.37,0.78,0.56,1.3,0.56c0.35,0,0.65-0.1,0.89-0.29c0.24-0.19,0.42-0.5,0.55-0.93l2.25,0.38
		c-0.29,0.82-0.75,1.45-1.37,1.88c-0.62,0.43-1.4,0.65-2.34,0.65c-1.48,0-2.58-0.48-3.29-1.45c-0.56-0.78-0.84-1.76-0.84-2.94
		c0-1.41,0.37-2.52,1.11-3.32s1.67-1.2,2.8-1.2c1.27,0,2.27,0.42,3,1.26c0.73,0.84,1.08,2.12,1.05,3.85h-5.66
		C138.19,18.64,138.37,19.16,138.72,19.54z M158.05,20.71c0,1.01-0.08,1.76-0.25,2.26s-0.4,0.89-0.7,1.17
		c-0.3,0.28-0.7,0.51-1.2,0.67c-0.5,0.16-1.13,0.24-1.9,0.24c-1.45,0-2.47-0.25-3.08-0.74c-0.61-0.5-0.91-1.12-0.91-1.88
		c0-0.07,0-0.17,0.01-0.27l2.58,0.31c0.04,0.3,0.14,0.51,0.3,0.62c0.21,0.16,0.55,0.24,1.01,0.24c0.59,0,1.03-0.09,1.33-0.27
		c0.2-0.12,0.35-0.31,0.45-0.57c0.07-0.19,0.1-0.53,0.1-1.04v-1.25c-0.67,0.92-1.53,1.38-2.55,1.38c-1.15,0-2.05-0.48-2.72-1.45
		c-0.52-0.77-0.79-1.72-0.79-2.86c0-1.43,0.34-2.52,1.03-3.28c0.69-0.75,1.54-1.13,2.57-1.13c1.05,0,1.93,0.46,2.61,1.39v-1.2h2.11
		V20.71z M167.32,20.51c-0.83,0.85-1.88,1.27-3.14,1.27c-0.78,0-1.53-0.18-2.24-0.53c-0.71-0.35-1.25-0.87-1.62-1.55
		s-0.55-1.51-0.55-2.49c0-0.75,0.18-1.48,0.55-2.18s0.89-1.24,1.57-1.61c0.68-0.37,1.43-0.55,2.27-0.55c1.29,0,2.35,0.42,3.17,1.26
		c0.83,0.84,1.24,1.9,1.24,3.18C168.57,18.59,168.15,19.66,167.32,20.51z M176.53,20.94c-0.65,0.56-1.62,0.84-2.9,0.84
		c-1.16,0-2.08-0.24-2.76-0.71c-0.68-0.47-1.12-1.11-1.33-1.92l2.27-0.35c0.1,0.44,0.29,0.77,0.59,1s0.71,0.34,1.24,0.34
		c0.58,0,1.02-0.11,1.32-0.32c0.2-0.15,0.3-0.35,0.3-0.6c0-0.17-0.05-0.31-0.16-0.43c-0.11-0.11-0.36-0.21-0.76-0.3
		c-1.82-0.4-2.97-0.77-3.46-1.1c-0.67-0.46-1.01-1.1-1.01-1.92c0-0.74,0.29-1.36,0.88-1.86s1.49-0.76,2.72-0.76
		c1.17,0,2.03,0.19,2.6,0.57c0.57,0.38,0.96,0.94,1.17,1.69l-2.13,0.39c-0.09-0.33-0.26-0.59-0.52-0.76
		c-0.25-0.18-0.62-0.27-1.09-0.27c-0.59,0-1.02,0.08-1.28,0.25c-0.17,0.12-0.26,0.27-0.26,0.46c0,0.16,0.07,0.3,0.22,0.41
		c0.2,0.15,0.91,0.36,2.11,0.63c1.2,0.27,2.04,0.61,2.52,1c0.47,0.4,0.71,0.96,0.71,1.68C177.51,19.7,177.18,20.38,176.53,20.94z
		 M181.8,21.78c-0.41,0-0.77-0.07-1.1-0.2c-0.33-0.14-0.57-0.31-0.72-0.53s-0.26-0.51-0.32-0.88c-0.05-0.26-0.07-0.79-0.07-1.59
		v-3.72h-1.04v-1.8h1.04v-1.69l2.27-1.32v3.01h1.54v1.8h-1.54v3.44c0,0.7,0.01,1.1,0.04,1.22s0.1,0.21,0.2,0.29s0.23,0.11,0.38,0.11
		c0.21,0,0.51-0.07,0.91-0.22l0.19,1.75C183.06,21.67,182.46,21.78,181.8,21.78z M190.14,21.59c-0.06-0.15-0.13-0.37-0.22-0.67
		c-0.04-0.13-0.06-0.22-0.08-0.26c-0.39,0.38-0.8,0.66-1.24,0.84c-0.44,0.19-0.91,0.28-1.41,0.28c-0.88,0-1.57-0.24-2.08-0.71
		s-0.76-1.08-0.76-1.81c0-0.48,0.12-0.91,0.35-1.29c0.23-0.38,0.55-0.67,0.97-0.87c0.42-0.2,1.01-0.38,1.8-0.53
		c1.05-0.2,1.79-0.38,2.19-0.55V15.8c0-0.43-0.11-0.74-0.32-0.93c-0.21-0.18-0.62-0.28-1.21-0.28c-0.4,0-0.71,0.08-0.94,0.24
		c-0.22,0.16-0.41,0.44-0.55,0.83l-2.05-0.37c0.23-0.82,0.63-1.44,1.19-1.83c0.56-0.4,1.4-0.59,2.51-0.59
		c1.01,0,1.76,0.12,2.25,0.36c0.49,0.24,0.84,0.54,1.04,0.91c0.2,0.37,0.3,1.04,0.3,2.02l-0.02,2.63c0,0.75,0.04,1.3,0.11,1.66
		s0.21,0.74,0.41,1.14H190.14z M198.84,15.26c-0.38-0.25-0.73-0.37-1.06-0.37c-0.32,0-0.58,0.09-0.8,0.26s-0.39,0.49-0.52,0.94
		c-0.13,0.46-0.19,1.41-0.19,2.86v2.63h-2.26v-8.53h2.1v1.21c0.36-0.57,0.68-0.95,0.97-1.13c0.29-0.18,0.61-0.27,0.98-0.27
		c0.51,0,1.01,0.14,1.49,0.43L198.84,15.26z"/>
	<path class="st2" d="M39.23,14.78v-2.96c0.29,0.11,0.55,0.31,0.74,0.58c0.15,0.25,0.48,0.31,0.72,0.15
		c0.25-0.15,0.31-0.48,0.15-0.72c-0.37-0.57-0.95-0.95-1.61-1.09V9.9c0-0.29-0.23-0.52-0.52-0.52c-0.29,0-0.52,0.23-0.52,0.52v0.83
		c-1.15,0.25-2.03,1.27-2.03,2.5s0.88,2.26,2.03,2.5v2.96c-0.29-0.11-0.55-0.31-0.74-0.58c-0.15-0.25-0.48-0.31-0.72-0.15
		c-0.25,0.15-0.31,0.48-0.15,0.72c0.37,0.57,0.95,0.95,1.61,1.09v0.83c0,0.29,0.23,0.52,0.52,0.52c0.29,0,0.52-0.23,0.52-0.52v-0.83
		c1.15-0.25,2.03-1.27,2.03-2.5C41.26,16.04,40.38,15.01,39.23,14.78z M38.19,14.63c-0.57-0.21-0.98-0.77-0.98-1.41
		c0-0.64,0.41-1.2,0.98-1.41V14.63z M39.23,18.68v-2.82c0.57,0.21,0.98,0.77,0.98,1.41C40.22,17.91,39.8,18.47,39.23,18.68z"/>
	<path class="st2" d="M187.07,18.23c-0.29,0.21-0.44,0.47-0.44,0.79c0,0.32,0.12,0.59,0.35,0.82c0.24,0.23,0.54,0.35,0.9,0.35
		c0.41,0,0.8-0.13,1.17-0.4c0.27-0.2,0.45-0.45,0.54-0.75c0.06-0.19,0.09-0.56,0.09-1.1v-0.45c-0.29,0.1-0.75,0.21-1.37,0.35
		S187.26,18.1,187.07,18.23z"/>
	<path class="st2" d="M77.33,14.71c-0.59,0-1.08,0.22-1.49,0.67c-0.4,0.45-0.6,1.1-0.6,1.94s0.2,1.49,0.6,1.94s0.9,0.67,1.49,0.67
		c0.59,0,1.08-0.22,1.48-0.67s0.6-1.1,0.6-1.96c0-0.84-0.2-1.48-0.6-1.93C78.41,14.93,77.92,14.71,77.33,14.71z"/>
</g>
<rect y="0" class="st0" width="226.77" height="34.02"/>
</svg>
