<svg width="1066" height="781" viewBox="0 0 1066 781" fill="none" xmlns="http://www.w3.org/2000/svg">
<g clip-path="url(#clip0)">
<path d="M0 326.306C1.95104 313.342 3.64011 300.332 5.89531 287.421C23.25 188.088 74.8432 110.74 158.991 56.1663C234.771 7.021 318.177 -9.63367 407.681 5.26233C464.212 14.6717 515.109 36.8303 560.673 71.3223C566.077 75.413 569.545 75.249 574.96 71.261C656.045 11.5397 746.299 -11.2777 845.917 5.50233C934.197 20.3717 1005.7 63.9477 1061.8 133.321C1062.88 134.666 1063.91 136.069 1064.85 137.522C1065.16 138.002 1065.08 138.728 1065.47 141.094C998.632 76.8103 919.309 42.9383 828.84 34.6437C739.951 26.493 653.533 32.517 574.469 81.4463C584.951 91.4543 594.94 100.992 604.928 110.529C604.66 110.868 604.389 111.206 604.121 111.544C594.269 104.332 584.273 97.3037 574.624 89.8277C569.709 86.021 565.832 85.9997 560.881 89.925C553.184 96.0263 544.919 101.41 535.689 105.669C543.815 97.8943 551.941 90.121 562.068 80.4303C543.057 71.541 525.583 61.8677 507.076 54.9543C360.781 0.291664 201.985 47.7197 113.895 176.44C42.8364 280.27 35.0229 390.842 94.5183 503.589C134.797 579.92 192.636 641.946 258.617 696.285C293.309 724.856 331.017 749.768 367.356 776.341C368.421 777.122 369.405 778.017 369.588 780.561C351.552 772.145 333.277 764.198 315.521 755.229C231.373 712.726 156.453 658.163 95.7864 585.333C53.0099 533.981 21.6536 476.714 7.81303 410.808C4.41041 394.602 2.56251 378.07 0 361.689C0 349.894 0 338.1 0 326.306Z" fill="#FF001F"/>
<path d="M716.42 358.93C699.06 358.01 681.732 362.422 667.952 374.328C635.723 402.174 624.288 438.664 630.488 479.92C634.299 505.281 653.357 514.888 677.701 506.376C695.916 500.009 706.432 485.332 715.456 469.458C729.911 444.033 734.661 415.556 740.784 387.529C746.996 359.098 746.989 359.097 716.42 358.93V358.93ZM823.872 239.354C805.457 341.133 775.941 439.27 764.075 542.102C748.003 542.102 730.965 542.102 712.801 542.102C713.873 529.845 714.931 517.766 716.221 503.026C708.4 512.081 702.724 519.358 696.327 525.936C668.243 554.809 621.821 556.632 596.563 530.045C585.627 518.536 580.34 504.289 578.059 489.018C569.407 431.104 594.629 366.816 648.74 337.614C678.396 321.61 710.223 319.149 742.769 323.602C752.16 324.886 755.441 322.774 757.157 313.56C761.208 291.805 766.584 270.3 771.021 248.612C772.416 241.792 774.973 238.729 782.628 239.149C796.084 239.886 809.611 239.354 823.872 239.354" fill="#2E4495"/>
<path d="M212.425 239.818C229.396 239.818 244.889 239.818 261.171 239.818C272.475 316.376 283.731 392.598 295.327 471.132C297.863 467.516 299.316 465.913 300.247 464.049C336.287 391.865 372.385 319.709 408.1 247.364C411.237 241.008 414.741 238.953 421.547 239.198C435.741 239.713 449.968 239.354 466.213 239.354C461.028 249.85 456.408 259.261 451.736 268.645C407.612 357.269 363.399 445.85 319.512 534.593C316.252 541.185 312.511 543.662 305.305 543.31C293.884 542.752 282.4 542.832 270.968 543.276C263.965 543.548 261.497 540.889 260.384 534.014C248.877 462.904 237.019 391.848 225.26 320.777C221.36 297.209 217.447 273.641 213.588 250.066C213.093 247.04 212.888 243.966 212.425 239.818" fill="#2E4495"/>
<path d="M1001.34 362.018C967.263 355.588 936.7 356.742 913.197 382.924C887.839 411.173 879.675 445.281 885.477 482.364C888.607 502.353 905.599 512.266 925.668 508.225C940.888 505.16 951.625 495.921 960.715 484.142C988.217 448.506 990.216 404.61 1001.34 362.018V362.018ZM970.627 502.38C962.663 511.858 956.996 519.314 950.6 526.084C930.591 547.264 905.677 553.126 878.249 546.041C852.724 539.448 839.684 520.108 834.212 495.613C820.92 436.118 850.663 356.177 917.149 331.47C937.964 323.736 959.529 320.52 981.464 321.986C1007.27 323.713 1032.97 326.988 1059.08 329.629C1044.61 401.54 1030.6 471.185 1016.29 542.277C1002.62 542.277 985.863 542.277 967.587 542.277C968.547 529.682 969.499 517.189 970.627 502.38" fill="#2E4495"/>
<path d="M551.573 326.692C545.456 354.778 539.495 381.73 533.732 408.725C528.46 433.429 522.581 458.042 518.512 482.949C515.313 502.526 523.556 509.596 543.472 507.068C547.157 506.6 550.839 506.088 555.809 505.424C553.396 517.312 551.413 528.049 548.864 538.653C548.445 540.397 545.748 542.32 543.756 542.846C526.431 547.426 508.921 549.322 491.476 543.704C475.377 538.516 464.643 525.8 465.167 508.92C465.701 491.764 468.112 474.496 471.461 457.628C479.548 416.906 488.863 376.43 497.173 335.752C498.677 328.389 501.601 326.216 508.876 326.524C522.68 327.105 536.527 326.692 551.573 326.692" fill="#2E4495"/>
<path d="M626.14 694.785C628.777 682.041 631.607 669.347 633.972 656.568C635.295 649.422 639.899 640.5 630.935 636.024C621.464 631.294 614.104 638.996 610.759 645.982C605.189 657.617 601.713 670.402 598.567 683.005C594.96 697.453 595.532 697.597 579.211 694.996C582.305 679.787 585.791 664.669 588.221 649.381C588.876 645.256 587.536 638.044 584.96 636.838C581.339 635.142 573.876 636.038 571.304 638.821C565.185 645.442 559.487 653.27 556.365 661.634C552.429 672.182 551.225 683.749 548.713 695.477C543.531 695.477 538.529 695.477 532.084 695.477C537.063 671.722 541.919 648.545 546.957 624.504C551.669 624.504 556.613 624.504 562.148 624.504C562.148 628.252 562.148 631.569 562.148 634.088C570.408 629.998 578.116 624.342 586.667 622.412C597.588 619.942 602.265 624.521 606.783 637.444C611.881 633.4 616.329 627.64 622.001 625.924C629.381 623.692 638.601 622.326 645.449 624.858C654.265 628.114 654.425 638.11 652.873 646.622C650.579 659.209 647.748 671.701 645 684.201C642.073 697.514 641.999 697.497 626.14 694.785" fill="#FF001F"/>
<path d="M915.695 635.472C902.693 632.396 892.743 633.878 885.312 642.757C877.097 652.57 873.865 664.28 877.091 676.787C879.147 684.759 886.052 687.057 892.692 683.263C897.76 680.364 902.923 675.411 905.111 670.154C909.563 659.452 912.033 647.925 915.695 635.472ZM933.924 624.236C930.92 638.77 928.251 651.554 925.647 664.353C924.477 670.105 922.985 675.84 922.429 681.658C920.917 697.498 921.084 697.514 904.505 695.147C904.505 692.192 904.505 689.165 904.505 686.138C903.555 685.317 902.604 684.494 901.653 683.671C900.211 686.141 899.235 689.093 897.251 691.001C883.92 703.833 864.577 698.259 860.159 680.468C852.74 650.59 874.515 622.088 905.148 622.074C914.332 622.07 923.516 623.413 933.924 624.236" fill="#FF001F"/>
<path d="M723.005 636.509C699.221 628.236 683.365 646.29 682.751 666.632C682.541 673.552 681.799 681.342 690.368 684.04C698.583 686.623 705.409 682.257 708.519 675.409C714.14 663.029 718.125 649.905 723.005 636.509ZM740.235 624.249C735.369 648.942 730.804 672.113 726.159 695.687C721.108 695.687 716.348 695.687 711.009 695.687C710.808 692.261 710.616 688.969 710.46 686.302C704.524 689.909 698.961 694.725 692.507 696.893C681.172 700.702 669.236 693.659 666.983 682.073C660.547 648.993 680.913 620.416 713.189 622.004C721.709 622.424 730.201 623.398 740.235 624.249" fill="#FF001F"/>
<path d="M449.939 635.985C424.397 628.082 410.452 649.066 410.671 669.834C410.721 674.668 414.8 682.125 418.744 683.52C422.849 684.971 429.649 681.445 434.109 678.398C437.501 676.082 439.937 671.389 441.288 667.259C444.592 657.157 447.02 646.769 449.939 635.985ZM454.724 695.597C449.999 695.597 445.281 695.597 440.025 695.597C439.653 692.137 439.307 688.903 438.96 685.669C438.019 684.859 437.076 684.049 436.135 683.238C435.131 685.441 434.596 688.073 433.041 689.773C426.059 697.413 417.437 699.868 407.569 696.352C398.083 692.971 394.957 684.873 393.916 675.93C390.316 645.033 411.268 621.718 442.485 622.069C450.964 622.164 459.428 623.592 468.701 624.484C465.929 637.584 463.373 649.02 461.116 660.514C458.861 672.002 456.907 683.549 454.724 695.597" fill="#FF001F"/>
<path d="M398.32 594.39C397.285 600.088 396.557 604.098 395.66 609.045C385.223 609.045 375.229 609.349 365.267 608.933C359.232 608.681 356.416 610.802 355.601 616.821C354.64 623.916 352.949 630.91 351.289 639.417C357.875 639.417 363.321 639.417 368.768 639.417C373.915 639.417 379.06 639.417 384.292 639.417C386.077 649.199 384.227 653.846 373.637 653.746C346.76 653.489 346.755 653.901 341.857 680.525C341.731 681.208 341.685 681.902 341.568 682.586C339.111 696.986 339.109 696.986 321.909 695.31C325.056 679.78 328.069 664.358 331.325 648.987C334.699 633.062 338.059 617.124 342.051 601.348C342.739 598.626 346.465 594.792 348.911 594.7C364.793 594.098 380.711 594.39 398.32 594.39" fill="#FF001F"/>
<path d="M537.924 239.378C552.8 239.198 564.184 250.037 564.147 264.345C564.109 279.084 552.768 290.366 537.684 290.67C522.681 290.974 511.121 280.501 510.751 266.269C510.363 251.442 522.364 239.568 537.924 239.378" fill="#2E4495"/>
<path d="M938.961 693.454C939.959 689.471 940.861 685.87 941.868 681.846C947.993 683.325 953.688 685.954 959.224 685.659C964.049 685.404 968.699 681.847 973.425 679.75C971.004 675.378 968.817 670.849 966.036 666.718C964.995 665.171 962.545 664.595 960.781 663.506C952.629 658.477 946.505 652.005 948.288 641.605C950.144 630.769 957.74 624.404 967.92 622.773C976.527 621.397 985.527 622.49 995.901 622.49C994.961 628.928 994.399 632.778 993.8 636.878C987.693 635.766 982.291 633.653 977.179 634.208C973.091 634.653 967.167 637.617 966.104 640.808C965.112 643.79 968.789 649.121 971.628 652.349C974.249 655.329 978.693 656.621 981.973 659.129C995.209 669.245 993.084 687.88 977.729 694.342C965.06 699.674 952.224 699.117 938.961 693.454" fill="#FF001F"/>
<path d="M810.936 626.777C810.032 630.389 809.071 634.232 808.108 638.081C783.887 631.721 771.208 638.929 766.933 660.732C763.377 678.871 773.667 688.241 791.441 683.038C793.748 682.364 796.035 681.626 798.869 680.753C800.16 688.895 797.628 693.729 789.328 696.094C764.569 703.147 748.112 689.94 749.897 664.002C752.431 627.177 788.741 613.402 810.936 626.777" fill="#FF001F"/>
<path d="M475.748 694.782C480.595 671.516 485.437 648.265 490.421 624.34C495.337 624.34 500.328 624.34 505.92 624.34C505.92 628.086 505.92 631.368 505.92 636.696C513.363 626.893 519.94 618.521 532.764 623.298C531.94 628.196 531.145 632.917 530.361 637.581C511.379 637.762 504.423 643.186 499.755 661.552C497.88 668.93 496.26 676.381 494.769 683.847C492.02 697.609 491.949 697.714 475.748 694.782" fill="#FF001F"/>
<path d="M846.689 684.202C847.243 697.204 839.645 697.445 831.452 696.922C822.732 696.365 816.999 691.733 818.261 683.064C820.952 664.597 824.305 646.156 828.973 628.116C829.759 625.081 838.504 624.102 846.221 621.166C842.417 640.158 839.783 655.395 836.209 670.41C833.972 679.814 834.5 686.021 846.689 684.202" fill="#FF001F"/>
<path d="M735.003 588.765C724.911 595.865 720.059 610.63 704.025 609.661C710.969 594.461 721.881 586.781 735.003 588.765Z" fill="#FF001F"/>
<path d="M842.179 612.441C837.732 605.75 833.14 601.862 833.417 598.357C833.663 595.242 839.576 590.008 842.503 590.316C846.26 590.709 851.948 595.437 852.324 598.801C852.687 602.036 847.339 605.909 842.179 612.441Z" fill="#FF001F"/>
</g>
<defs>
<clipPath id="clip0">
<rect width="1065.47" height="780.561" fill="white"/>
</clipPath>
</defs>
</svg>
